<?xml version="1.0" encoding="utf-8"?>
<!-- Generator: Adobe Illustrator 25.2.1, SVG Export Plug-In . SVG Version: 6.00 Build 0)  -->
<svg version="1.1" id="Layer_1" xmlns="http://www.w3.org/2000/svg" xmlns:xlink="http://www.w3.org/1999/xlink" x="0px" y="0px"
	 viewBox="0 0 560 560" style="enable-background:new 0 0 560 560;" xml:space="preserve">
<style type="text/css">
	.st0{fill:#313131;}
</style>
<path class="st0" d="M340.3,280l113.1-113.1c12.5-12.5,12.5-32.8,0-45.2l-15.1-15.1c-12.5-12.5-32.8-12.5-45.2,0L280,219.7
	L166.9,106.5c-12.5-12.5-32.8-12.5-45.2,0l-15.1,15.1c-12.5,12.5-12.5,32.8,0,45.2L219.7,280L106.6,393.1
	c-12.5,12.5-12.5,32.8,0,45.2l15.1,15.1c12.5,12.5,32.8,12.5,45.2,0L280,340.3l113.1,113.1c12.5,12.5,32.8,12.5,45.2,0l15.1-15.1
	c12.5-12.5,12.5-32.8,0-45.2L340.3,280z"/>
</svg>
