<?xml version="1.0" standalone="no"?>
<!DOCTYPE svg PUBLIC "-//W3C//DTD SVG 1.1//EN" "http://www.w3.org/Graphics/SVG/1.1/DTD/svg11.dtd" >
<svg xmlns="http://www.w3.org/2000/svg" xmlns:xlink="http://www.w3.org/1999/xlink" version="1.1">
<metadata>
Created by FontForge 20170731 at Wed Aug  7 13:29:55 2019
 By Aleksey,,,
Copyright (c) 2017 by Nizar Kazan-Grandchamp. All rights reserved.
</metadata>
<defs>
<font id="Lausanne-800" horiz-adv-x="592" >
  <font-face 
    font-family="Lausanne 750"
    font-weight="800"
    font-stretch="normal"
    units-per-em="1000"
    panose-1="2 0 5 3 4 0 0 2 0 4"
    ascent="800"
    descent="-200"
    x-height="517"
    cap-height="714"
    bbox="-139 -234 1347 973"
    underline-thickness="90"
    underline-position="-448"
    unicode-range="U+000D-FB02"
  />
<missing-glyph horiz-adv-x="959" 
d="M935 269v-20h-446v-446h-20v446h-445v20h445v445h20v-445h446z" />
    <glyph glyph-name="fi" unicode="fi" horiz-adv-x="612" 
d="M312 600q-41 0 -53 -16t-12 -67h89v-114h-89v-403h-154v403h-73v114h73v6q0 97 37.5 144t138.5 47h64v-114h-21zM402 714h158v-134h-158v134zM404 0v517h154v-517h-154z" />
    <glyph glyph-name="fl" unicode="fl" horiz-adv-x="620" 
d="M312 600q-41 0 -53 -16t-12 -67h89v-114h-89v-403h-154v403h-73v114h73v6q0 97 37.5 144t138.5 47h64v-114h-21zM408 714h154v-714h-154v714z" />
    <glyph glyph-name=".notdef" horiz-adv-x="959" 
d="M935 269v-20h-446v-446h-20v446h-445v20h445v445h20v-445h446z" />
    <glyph glyph-name=".null" horiz-adv-x="508" 
 />
    <glyph glyph-name="nonmarkingreturn" horiz-adv-x="333" 
 />
    <glyph glyph-name="CR" unicode="&#xd;" horiz-adv-x="8" 
 />
    <glyph glyph-name="space" unicode=" " horiz-adv-x="210" 
 />
    <glyph glyph-name="exclam" unicode="!" horiz-adv-x="284" 
d="M222 464l-28 -281h-105l-27 281v250h160v-250zM63 130h158v-130h-158v130z" />
    <glyph glyph-name="quotedbl" unicode="&#x22;" horiz-adv-x="456" 
d="M50 714h148l-8 -262h-118zM406 714l-22 -262h-118l-8 262h148z" />
    <glyph glyph-name="numbersign" unicode="#" horiz-adv-x="568" 
d="M538 417h-91l-19 -139h84v-97h-98l-25 -181h-111l25 181h-69l-25 -181h-111l25 181h-93v97h107l19 139h-100v98h114l28 199h111l-28 -199h69l28 199h111l-28 -199h77v-98zM317 278l19 139h-69l-19 -139h69z" />
    <glyph glyph-name="dollar" unicode="$" horiz-adv-x="624" 
d="M590 196q0 -88 -58 -141t-147 -67v-114h-132v116q-91 19 -149 83t-70 168h166q4 -55 38.5 -90t87.5 -35q106 0 106 82q0 18 -8 32t-17.5 22.5t-33.5 18t-39 14t-52 14.5q-49 13 -85 30t-69 43.5t-50 67t-17 92.5q0 79 54 129t138 64v113h132v-113q85 -16 136 -73.5
t57 -157.5h-160q-8 104 -104 104q-43 0 -68.5 -19t-25.5 -55t31.5 -58.5t102.5 -41.5q55 -15 90.5 -29.5t72.5 -40t55 -65t18 -93.5z" />
    <glyph glyph-name="percent" unicode="%" horiz-adv-x="978" 
d="M690 721l-275 -727h-128l275 727h128zM219 719q88 0 136.5 -59.5t48.5 -147.5q0 -89 -48 -149.5t-137 -60.5q-88 0 -136.5 61t-48.5 149t48.5 147.5t136.5 59.5zM219 398q32 0 49.5 32.5t17.5 82.5q0 49 -17.5 80t-49.5 31q-33 0 -52 -31.5t-19 -79.5q0 -49 19 -82
t52 -33zM759 402q88 0 136.5 -59.5t48.5 -147.5q0 -89 -48 -149.5t-137 -60.5q-88 0 -136.5 61t-48.5 149t48.5 147.5t136.5 59.5zM759 81q32 0 49.5 32.5t17.5 82.5q0 49 -17.5 80t-49.5 31t-49.5 -31t-17.5 -80q0 -50 17.5 -82.5t49.5 -32.5z" />
    <glyph glyph-name="ampersand" unicode="&#x26;" horiz-adv-x="638" 
d="M443 66q-81 -78 -203 -78q-103 0 -170 58t-67 155q0 126 165 206q-37 45 -55 79t-18 72q0 68 57 116t135 48q87 0 145 -45t58 -123q0 -57 -35.5 -103.5t-95.5 -77.5l86 -108q6 14 10.5 38.5t11.5 41.5h127q-11 -26 -26.5 -86t-36.5 -93l141 -165h-173zM285 461
q41 27 57 45.5t16 51.5q0 26 -19 45t-46 19q-26 0 -44.5 -16t-18.5 -43q0 -26 11.5 -45.5t43.5 -56.5zM245 314q-92 -43 -92 -116q0 -40 26.5 -65.5t66.5 -25.5q63 0 118 61z" />
    <glyph glyph-name="quotesingle" unicode="'" horiz-adv-x="248" 
d="M50 714h148l-20 -262h-108z" />
    <glyph glyph-name="parenleft" unicode="(" horiz-adv-x="332" 
d="M198 -198q-79 123 -120.5 234t-41.5 234q0 118 42.5 238t119.5 223h130q-132 -208 -132 -461q0 -255 132 -468h-130z" />
    <glyph glyph-name="parenright" unicode=")" horiz-adv-x="332" 
d="M134 -198h-130q132 213 132 468q0 253 -132 461h130q77 -103 119.5 -223t42.5 -238q0 -123 -41.5 -234t-120.5 -234z" />
    <glyph glyph-name="asterisk" unicode="*" horiz-adv-x="382" 
d="M242 626l96 34l34 -98l-96 -33l56 -80l-85 -60l-57 81l-57 -81l-85 60l56 80l-96 33l34 98l96 -34v94h104v-94z" />
    <glyph glyph-name="plus" unicode="+" horiz-adv-x="632" 
d="M379 341h213v-128h-213v-213h-126v213h-213v128h213v213h126v-213z" />
    <glyph glyph-name="comma" unicode="," horiz-adv-x="302" 
d="M84 160h170l-84 -264h-140z" />
    <glyph glyph-name="hyphen" unicode="-" horiz-adv-x="472" 
d="M56 344h360v-130h-360v130z" />
    <glyph glyph-name="period" unicode="." horiz-adv-x="290" 
d="M60 160h170v-160h-170v160z" />
    <glyph glyph-name="slash" unicode="/" horiz-adv-x="349" 
d="M244 771h125l-244 -868h-125z" />
    <glyph glyph-name="zero" unicode="0" horiz-adv-x="636" 
d="M318 722q78 0 134.5 -30t88 -83.5t45.5 -115.5t14 -136q0 -59 -8.5 -110.5t-29 -100.5t-52 -84.5t-80.5 -56.5t-112 -21t-112 21t-80.5 56.5t-52 84.5t-29 100.5t-8.5 110.5q0 74 14 136t45.5 115.5t88 83.5t134.5 30zM318 109q67 0 99.5 70.5t32.5 178.5
q0 106 -32.5 172.5t-99.5 66.5t-99.5 -66.5t-32.5 -172.5q0 -108 32.5 -178.5t99.5 -70.5z" />
    <glyph glyph-name="one" unicode="1" horiz-adv-x="472" 
d="M236 714h140v-714h-150v487h-182v110q72 0 119 26.5t73 90.5z" />
    <glyph glyph-name="two" unicode="2" horiz-adv-x="605" 
d="M243 130h330v-130h-527q0 60 11 102.5t39.5 78.5t60.5 62t91 65q104 68 125 89q39 47 41 104q0 42 -27 70.5t-73 28.5q-47 0 -77.5 -32t-30.5 -91h-150q0 108 76 177.5t182 69.5q107 0 178.5 -61t71.5 -152q0 -82 -35.5 -137.5t-117.5 -118.5q-26 -20 -64 -44t-63.5 -43
t-40.5 -38z" />
    <glyph glyph-name="three" unicode="3" horiz-adv-x="607" 
d="M62 509q8 98 72.5 156.5t172.5 58.5q112 0 177.5 -52t65.5 -146q0 -58 -36 -99t-84 -53q71 -12 108 -63.5t37 -123.5q0 -77 -67 -140t-185 -63q-123 0 -198.5 55.5t-83.5 156.5l-1 12h149l2 -13q7 -41 41.5 -64t82.5 -23q50 0 82 25.5t32 78.5q0 43 -30 71.5t-89 28.5
q-49 0 -65 -2v118q23 -1 61 -1q44 0 69 21.5t25 65.5q0 41 -25.5 63.5t-67.5 22.5q-85 0 -94 -76q0 -2 -0.5 -7t-0.5 -8h-150z" />
    <glyph glyph-name="four" unicode="4" horiz-adv-x="612" 
d="M574 293v-130h-80v-163h-150v163h-318v154l305 397h163v-421h80zM169 293h175v233h-1z" />
    <glyph glyph-name="five" unicode="5" horiz-adv-x="603" 
d="M326 483q110 0 179.5 -67.5t69.5 -179.5q0 -108 -76.5 -180t-187.5 -72q-68 0 -118 18t-80 51.5t-45.5 63.5t-27.5 71l150 3q10 -33 40.5 -56.5t78.5 -23.5q49 0 82.5 37.5t33.5 89.5q0 50 -33.5 85.5t-82.5 35.5q-45 0 -69.5 -15t-43.5 -45l-145 12l58 405l410 -2v-124
h-284l-22 -147l2 -1q48 41 111 41z" />
    <glyph glyph-name="six" unicode="6" horiz-adv-x="619" 
d="M343 483q109 0 178.5 -67t69.5 -168q0 -116 -74 -190.5t-200 -74.5q-133 0 -206 94q-75 96 -75 260q0 78 16 145.5t49.5 123t90.5 87.5t132 32q113 0 175.5 -51.5t75.5 -136.5l-150 -3q-8 19 -16 31t-30.5 24t-55.5 12q-35 0 -60.5 -16t-40 -45.5t-22 -59.5t-11.5 -70
q9 14 25 28.5t52 29.5t77 15zM318 109q53 0 88 34.5t35 89.5t-35 90.5t-88 35.5q-55 0 -88 -37.5t-33 -88.5q0 -55 34 -89.5t87 -34.5z" />
    <glyph glyph-name="seven" unicode="7" horiz-adv-x="547" 
d="M12 714h503v-101q-108 -106 -182 -277t-84 -336h-150q16 189 81.5 342t154.5 242h-323v130z" />
    <glyph glyph-name="eight" unicode="8" horiz-adv-x="601" 
d="M435 379q52 -14 91 -63.5t39 -117.5q0 -99 -68.5 -156.5t-193.5 -57.5q-129 0 -198.5 57.5t-68.5 156.5q1 68 40 117.5t92 63.5q-104 39 -104 158q0 79 63 134.5t175 55.5t174.5 -55.5t62.5 -134.5q0 -119 -104 -158zM302 607q-45 0 -69 -24.5t-24 -62.5q0 -37 24 -61.5
t69 -24.5t68.5 24t23.5 62t-23.5 62.5t-68.5 24.5zM302 104q57 0 85 30.5t28 75.5q0 44 -28 75t-85 31q-58 0 -87 -31t-29 -75t29 -75t87 -31z" />
    <glyph glyph-name="nine" unicode="9" horiz-adv-x="619" 
d="M508 632q75 -96 75 -260q0 -78 -16 -145.5t-49.5 -123.5t-90.5 -88t-132 -32q-113 0 -175.5 52t-75.5 137l150 3q8 -19 16 -31.5t30.5 -24.5t55.5 -12q35 0 60.5 16t40 45.5t22 60t11.5 70.5q-9 -14 -25 -28.5t-52 -29.5t-77 -15q-109 0 -178.5 67t-69.5 168
q0 116 74 190.5t200 74.5q133 0 206 -94zM301 350q55 0 88 37.5t33 88.5q0 55 -34 89.5t-87 34.5t-88 -34.5t-35 -89.5t35 -90.5t88 -35.5z" />
    <glyph glyph-name="colon" unicode=":" horiz-adv-x="278" 
d="M214 327h-150v160h150v-160zM214 0h-150v160h150v-160z" />
    <glyph glyph-name="semicolon" unicode=";" horiz-adv-x="278" 
d="M206 327h-150v160h150v-160zM74 160h150l-80 -234h-120z" />
    <glyph glyph-name="less" unicode="&#x3c;" horiz-adv-x="556" 
d="M522 400l-315 -146l315 -148v-138l-488 234v102l488 234v-138z" />
    <glyph glyph-name="equal" unicode="=" horiz-adv-x="668" 
d="M606 300h-544v118h544v-118zM62 225h544v-118h-544v118z" />
    <glyph glyph-name="greater" unicode="&#x3e;" horiz-adv-x="556" 
d="M34 400v138l488 -234v-102l-488 -234v138l315 148z" />
    <glyph glyph-name="question" unicode="?" horiz-adv-x="571" 
d="M50 496v20q0 93 62.5 154t171.5 61q110 0 173.5 -58t63.5 -147q0 -35 -16 -69.5t-30 -51t-41 -45.5q-5 -6 -26 -26.5t-28.5 -29.5t-16 -26t-8.5 -33v-27h-154v27q0 46 17.5 82t42.5 59t50 43t42.5 44t17.5 51q0 39 -22 61t-64 22q-41 0 -63.5 -25.5t-24.5 -65.5l-1 -20
h-146zM201 160h154v-160h-154v160z" />
    <glyph glyph-name="at" unicode="@" horiz-adv-x="845" 
d="M674 -17q-43 -26 -104.5 -42t-115.5 -16q-184 0 -302 108.5t-118 285.5q0 181 118.5 295t286.5 114q167 0 269.5 -98t102.5 -257q0 -118 -51 -189t-136 -71q-45 0 -71 24t-32 61q-12 -37 -45 -62.5t-77 -25.5q-81 0 -132.5 56t-51.5 146q0 98 57.5 160t143.5 62
q47 0 77 -24.5t34 -52.5l4 54h100l-20 -192q-4 -46 -4 -57q0 -50 25 -50q30 0 49 45.5t19 115.5q0 112 -66 178.5t-195 66.5q-128 0 -206.5 -83t-78.5 -216q0 -122 80 -203t210 -81q104 0 183 41zM504 341q0 39 -19.5 64.5t-58.5 25.5q-40 0 -64.5 -32.5t-24.5 -83.5
q0 -103 74 -103q42 0 67.5 36.5t25.5 92.5z" />
    <glyph glyph-name="A" unicode="A" horiz-adv-x="745" 
d="M567 0l-60 172h-272l-60 -172h-167l265 714h201l263 -714h-170zM372 574h-2l-91 -276h185z" />
    <glyph glyph-name="B" unicode="B" horiz-adv-x="623" 
d="M66 0v714h189q63 0 93 -1q110 -4 170 -51.5t60 -134.5q0 -61 -36 -101t-96 -56v-1q64 -8 109.5 -50t45.5 -115q0 -90 -47.5 -136t-135.5 -61q-42 -7 -106 -7h-246zM226 424h63q69 0 100 18t31 66q0 47 -28 62t-91 15h-75v-161zM226 130h60q81 0 120 17.5t39 71.5
q0 47 -33.5 63.5t-98.5 16.5h-87v-169z" />
    <glyph glyph-name="C" unicode="C" horiz-adv-x="771" 
d="M734 232q-31 -118 -120.5 -181.5t-221.5 -63.5q-158 0 -260 100.5t-102 268.5q0 166 103.5 268.5t261.5 102.5q133 0 219.5 -63.5t120.5 -182.5h-157q-50 110 -183 110q-87 0 -146 -65.5t-59 -169.5q0 -102 59.5 -167.5t145.5 -65.5q72 0 115.5 27t65.5 82h158z" />
    <glyph glyph-name="D" unicode="D" horiz-adv-x="711" 
d="M292 714q187 0 288 -92t101 -258q0 -173 -100.5 -268.5t-288.5 -95.5h-226v714h226zM290 136q109 0 168 57.5t59 170.5q0 106 -58.5 160t-166.5 54h-66v-442h64z" />
    <glyph glyph-name="E" unicode="E" horiz-adv-x="587" 
d="M226 136h319v-136h-479v714h476v-136h-316v-153h295v-132h-295v-157z" />
    <glyph glyph-name="F" unicode="F" horiz-adv-x="545" 
d="M531 578h-305v-153h283v-132h-283v-293h-160v714h465v-136z" />
    <glyph glyph-name="G" unicode="G" horiz-adv-x="773" 
d="M396 265v120h328l-9 -385h-96l-10 96q-67 -113 -224 -113q-154 0 -254.5 110.5t-100.5 263.5q0 101 42.5 185t129.5 136.5t203 52.5q131 0 211 -67t111 -177h-163q-39 108 -159 108q-101 0 -158 -66t-57 -172t57.5 -172t158.5 -66q76 0 124 39t66 107h-200z" />
    <glyph glyph-name="H" unicode="H" horiz-adv-x="724" 
d="M498 714h160v-714h-160v290h-272v-290h-160v714h160v-288h272v288z" />
    <glyph glyph-name="I" unicode="I" horiz-adv-x="308" 
d="M74 714h160v-714h-160v714z" />
    <glyph glyph-name="J" unicode="J" horiz-adv-x="550" 
d="M178 220q3 -103 80 -103q76 0 76 98v499h160v-482q0 -125 -58 -185t-178 -60q-119 0 -176 60t-64 173h160z" />
    <glyph glyph-name="K" unicode="K" horiz-adv-x="675" 
d="M681 714l-272 -303l270 -411h-183l-189 297l-81 -91v-206h-160v714h160v-301l263 301h192z" />
    <glyph glyph-name="L" unicode="L" horiz-adv-x="560" 
d="M226 136h320v-136h-480v714h160v-578z" />
    <glyph glyph-name="M" unicode="M" horiz-adv-x="907" 
d="M613 714h228v-714h-154v513h-1l-155 -513h-154l-156 513h-1v-513h-154v714h229l163 -521z" />
    <glyph glyph-name="N" unicode="N" horiz-adv-x="754" 
d="M66 714h218l177 -358q2 -4 75 -164q-3 60 -3 207v315h155v-714h-215l-149 300q-90 179 -105 219q2 -39 2 -227v-292h-155v714z" />
    <glyph glyph-name="O" unicode="O" horiz-adv-x="814" 
d="M407 731q116 0 203.5 -52.5t130.5 -136.5t43 -185t-43 -185t-130.5 -136.5t-203.5 -52.5t-203.5 52.5t-130.5 136.5t-43 185t43 185t130.5 136.5t203.5 52.5zM407 119q98 0 157.5 67.5t59.5 170.5t-59.5 170.5t-157.5 67.5t-157.5 -67.5t-59.5 -170.5t59.5 -170.5
t157.5 -67.5z" />
    <glyph glyph-name="P" unicode="P" horiz-adv-x="626" 
d="M338 714q127 0 200.5 -64t73.5 -164q0 -102 -79 -171.5t-195 -69.5h-112v-245h-160v714h272zM328 377q55 0 90.5 26.5t35.5 79.5q0 99 -126 99h-102v-205h102z" />
    <glyph glyph-name="Q" unicode="Q" horiz-adv-x="814" 
d="M784 357q0 -161 -102 -266q43 -33 70 -36l-59 -96q-55 11 -114 59q-78 -35 -172 -35q-116 0 -203.5 52.5t-130.5 136.5t-43 185t43 185t130.5 136.5t203.5 52.5t203.5 -52.5t130.5 -136.5t43 -185zM190 357q0 -103 59.5 -170.5t157.5 -67.5q35 0 66 9q-35 43 -91 64
l63 94q54 -16 128 -90q51 65 51 161q0 103 -59.5 170.5t-157.5 67.5t-157.5 -67.5t-59.5 -170.5z" />
    <glyph glyph-name="R" unicode="R" horiz-adv-x="671" 
d="M66 1v713h287q123 0 194.5 -55t71.5 -148q0 -77 -38.5 -126.5t-97.5 -65.5q51 -19 76 -77q7 -16 25 -68q6 -17 14.5 -45t14 -44t15 -37t21.5 -39v-9h-162q-12 12 -21.5 31.5t-15 35.5t-14 46.5t-13.5 45.5q-17 53 -45.5 78.5t-89.5 25.5h-62v-262h-160zM226 391h117
q55 0 87.5 26.5t32.5 71.5t-32 71t-88 26h-117v-195z" />
    <glyph glyph-name="S" unicode="S" horiz-adv-x="640" 
d="M438 494q-7 104 -114 104q-46 0 -75 -18.5t-29 -55.5q0 -36 34.5 -57.5t109.5 -42.5q45 -12 74 -22t64 -28.5t55.5 -41t34.5 -57.5t14 -79q0 -70 -41 -119.5t-101.5 -71.5t-131.5 -22q-123 0 -205.5 66t-96.5 192h166q4 -56 42 -90.5t94 -34.5q116 0 116 82
q0 28 -20.5 47t-42.5 27t-75 22q-12 3 -18 5q-50 14 -87 30t-72 42.5t-53.5 67t-18.5 93.5q0 65 40.5 111.5t99.5 67t128 20.5q115 0 188.5 -58t80.5 -179h-160z" />
    <glyph glyph-name="T" unicode="T" horiz-adv-x="590" 
d="M576 714v-136h-201v-578h-160v578h-201v136h562z" />
    <glyph glyph-name="U" unicode="U" horiz-adv-x="703" 
d="M647 302q0 -146 -69.5 -232.5t-220.5 -86.5q-301 0 -301 319v412h160v-412q0 -181 141 -181q130 0 130 181v412h160v-412z" />
    <glyph glyph-name="V" unicode="V" horiz-adv-x="702" 
d="M528 714h174l-236 -713l-230 -1l-236 714h174l174 -562h6z" />
    <glyph glyph-name="W" unicode="W" horiz-adv-x="947" 
d="M0 714h170l71 -453l14 -92h3l19 92l96 453h201l89 -453l18 -93h4l16 93l76 453h170l-100 -453l-57 -261h-214l-102 555h-3l-59 -294l-52 -261h-214l-53 261z" />
    <glyph glyph-name="X" unicode="X" horiz-adv-x="673" 
d="M673 0h-182l-152 234l-157 -234h-182l253 364l-239 350h182l141 -223l140 223h182l-236 -355z" />
    <glyph glyph-name="Y" unicode="Y" horiz-adv-x="661" 
d="M16 714h181q114 -243 137 -294h1q23 48 63.5 137.5t72.5 156.5h174l-236 -446v-268h-160v268z" />
    <glyph glyph-name="Z" unicode="Z" horiz-adv-x="628" 
d="M245 136h351v-136h-546v127l328 451h-316v136h524v-97z" />
    <glyph glyph-name="bracketleft" unicode="[" horiz-adv-x="287" 
d="M279 611h-97v-689h97v-120h-237v929h237v-120z" />
    <glyph glyph-name="backslash" unicode="\" horiz-adv-x="329" 
d="M349 -17h-73l-296 748h73z" />
    <glyph glyph-name="bracketright" unicode="]" horiz-adv-x="291" 
d="M12 -78h97v689h-97v120h237v-929h-237v120z" />
    <glyph glyph-name="asciicircum" unicode="^" horiz-adv-x="596" 
d="M240 697h116l213 -433h-141l-130 270l-129 -270h-141z" />
    <glyph glyph-name="underscore" unicode="_" horiz-adv-x="556" 
d="M-2 -56h560v-98h-560v98z" />
    <glyph glyph-name="grave" unicode="`" horiz-adv-x="261" 
d="M160 714l103 -143h-114l-151 143h162z" />
    <glyph glyph-name="a" unicode="a" horiz-adv-x="569" 
d="M513 140q0 -111 12 -140h-151q-8 21 -8 60v7h-1q-38 -82 -155 -82q-80 0 -132 43t-52 113q0 21 5 40t12 33t20.5 26.5t23.5 20.5t29.5 15.5t29.5 11.5t32 8.5t29 5.5t28.5 4t22.5 3q11 2 27 3.5t24 2.5t18.5 3.5t16 5t10.5 7t7 11.5t2 16q0 32 -21 49.5t-56 17.5
t-57.5 -18.5t-23.5 -51.5h-146q6 78 65 129t162 51q110 0 168.5 -57.5t58.5 -173.5v-164zM258 88q47 0 78.5 39t31.5 107v30q-19 -36 -99 -52q-89 -18 -89 -67q0 -24 19.5 -40.5t58.5 -16.5z" />
    <glyph glyph-name="b" unicode="b" horiz-adv-x="629" 
d="M376 535q95 0 161 -76.5t66 -199.5q0 -124 -66 -201t-161 -77q-54 0 -96 25.5t-62 74.5h-1v-81h-163v714h164v-275q18 40 62.5 68t95.5 28zM325 106q49 0 85.5 42t36.5 111q0 68 -36.5 109.5t-85.5 41.5q-47 0 -82 -34t-40 -97l-1 -20q0 -73 36 -113t87 -40z" />
    <glyph glyph-name="c" unicode="c" horiz-adv-x="584" 
d="M558 181q-13 -94 -83 -146t-166 -52q-117 0 -200 74.5t-83 201.5q0 128 83 201t200 73q95 0 166 -52t83 -142h-142q-23 76 -107 76q-53 0 -93 -39t-40 -117t39.5 -118t93.5 -40q38 0 69 20t39 60h141z" />
    <glyph glyph-name="d" unicode="d" horiz-adv-x="623" 
d="M411 714h164v-714h-163v81h-1q-20 -49 -62 -74.5t-96 -25.5q-95 0 -161 77t-66 201q0 123 66 199.5t161 76.5q51 0 95.5 -28t62.5 -68v275zM304 106q51 0 87 40t36 113l-1 20q-5 63 -40 97t-82 34q-49 0 -85.5 -41.5t-36.5 -109.5q0 -69 36.5 -111t85.5 -42z" />
    <glyph glyph-name="e" unicode="e" horiz-adv-x="588" 
d="M562 247q0 -18 -1 -30h-383q7 -54 40 -84.5t83 -30.5q69 0 99 49h155q-25 -76 -93 -122.5t-165 -46.5q-119 0 -195 76.5t-76 200.5q0 119 77.5 197t196.5 78q123 0 192.5 -79.5t69.5 -207.5zM180 318h230q-6 50 -35.5 76.5t-76.5 26.5t-79 -27.5t-39 -75.5z" />
    <glyph glyph-name="f" unicode="f" horiz-adv-x="350" 
d="M336 517v-114h-89v-403h-154v403h-73v114h73v6q0 97 37.5 144t138.5 47h64v-114h-21q-41 0 -53 -16t-12 -67h89z" />
    <glyph glyph-name="g" unicode="g" horiz-adv-x="633" 
d="M415 517h164v-453q0 -70 -21.5 -120.5t-61 -78.5t-86 -40.5t-103.5 -12.5q-111 0 -179.5 51.5t-82.5 128.5h151q18 -67 109 -67q110 0 110 108v63h-1q-24 -41 -68.5 -62t-91.5 -21q-103 0 -165.5 68t-62.5 190q0 123 63 193.5t165 70.5q45 0 90 -24t70 -65h1v71zM194 271
q0 -62 33.5 -99t83.5 -37q49 0 82 37t33 99t-33 100.5t-82 38.5q-50 0 -83.5 -38.5t-33.5 -100.5z" />
    <glyph glyph-name="h" unicode="h" 
d="M358 535q186 0 186 -231v-304h-154v258q0 33 -2.5 56t-10.5 47t-26 36.5t-46 12.5q-97 0 -97 -165v-245h-154v714h154v-197l-1 -85q41 103 151 103z" />
    <glyph glyph-name="i" unicode="i" horiz-adv-x="262" 
d="M210 580h-158v134h158v-134zM54 0v517h154v-517h-154z" />
    <glyph glyph-name="j" unicode="j" horiz-adv-x="274" 
d="M219 583h-154v131h154v-131zM220 517v-523q0 -98 -36.5 -144.5t-137.5 -46.5h-64v115h21q41 0 54 17t13 69v513h150z" />
    <glyph glyph-name="k" unicode="k" horiz-adv-x="575" 
d="M395 0l-142 188l-45 -47v-141h-154v714h154v-396l176 199h184l-217 -226l226 -291h-182z" />
    <glyph glyph-name="l" unicode="l" horiz-adv-x="270" 
d="M58 714h154v-714h-154v714z" />
    <glyph glyph-name="m" unicode="m" horiz-adv-x="910" 
d="M668 535q194 0 194 -176v-359h-148v269q0 72 -19.5 107t-70.5 35q-92 0 -92 -157v-254h-148v269q0 30 -3 51.5t-11.5 44t-27 34.5t-47.5 12q-91 0 -91 -156v-255h-150v517h150v-105h1q28 123 159 123q50 0 95 -29.5t57 -80.5q11 51 53.5 80.5t98.5 29.5z" />
    <glyph glyph-name="n" unicode="n" 
d="M358 535q186 0 186 -231v-304h-154v258q0 33 -2.5 56t-10.5 47t-26 36.5t-46 12.5q-97 0 -97 -165v-245h-154v517h152v-87q41 105 152 105z" />
    <glyph glyph-name="o" unicode="o" horiz-adv-x="605" 
d="M303 -17q-116 0 -196.5 74t-80.5 202q0 127 80.5 200.5t196.5 73.5q115 0 195.5 -73.5t80.5 -200.5t-80.5 -201.5t-195.5 -74.5zM303 105q51 0 85.5 40.5t34.5 113.5t-35 112.5t-85 39.5t-85.5 -40t-35.5 -112q0 -73 35 -113.5t86 -40.5z" />
    <glyph glyph-name="p" unicode="p" horiz-adv-x="629" 
d="M376 535q95 0 161 -76.5t66 -199.5q0 -124 -66 -201t-161 -77q-54 0 -96 25.5t-62 74.5h-1v-278h-163v714h164v-78q18 40 62.5 68t95.5 28zM325 106q49 0 85.5 42t36.5 111q0 68 -36.5 109.5t-85.5 41.5q-47 0 -82 -34t-40 -97l-1 -20q0 -73 36 -113t87 -40z" />
    <glyph glyph-name="q" unicode="q" horiz-adv-x="629" 
d="M411 517h164v-714h-163v278h-1q-20 -49 -62 -74.5t-96 -25.5q-95 0 -161 77t-66 201q0 123 66 199.5t161 76.5q51 0 95.5 -28t62.5 -68v78zM304 106q51 0 87 40t36 113l-1 20q-5 63 -40 97t-82 34q-49 0 -85.5 -41.5t-36.5 -109.5q0 -69 36.5 -111t85.5 -42z" />
    <glyph glyph-name="r" unicode="r" horiz-adv-x="374" 
d="M358 376q-75 6 -112.5 -32t-37.5 -100v-244h-154v517h149v-88h2q37 101 153 102v-155z" />
    <glyph glyph-name="s" unicode="s" horiz-adv-x="498" 
d="M323 364q-14 63 -78 63q-29 0 -46.5 -15t-17.5 -35q0 -26 27 -40t113 -34q83 -19 119 -56t36 -96q0 -73 -57.5 -121t-165.5 -48q-207 0 -231 180h152q11 -70 79 -70q34 0 51.5 14t17.5 37q0 30 -22 43t-101 32q-85 21 -124 55.5t-39 95.5q0 70 57.5 118t151.5 48
q95 0 152 -44.5t68 -126.5h-142z" />
    <glyph glyph-name="t" unicode="t" horiz-adv-x="369" 
d="M349 403h-104v-176q0 -57 13.5 -85t51.5 -28h30v-114h-76q-101 0 -137 50.5t-36 150.5v202h-85v114h85v100l149 80h5v-180h104v-114z" />
    <glyph glyph-name="u" unicode="u" 
d="M384 517h154v-517h-152v87q-41 -105 -152 -105q-186 0 -186 231v304h154v-258q0 -33 2.5 -56t10.5 -47t26 -36.5t46 -12.5q97 0 97 165v245z" />
    <glyph glyph-name="v" unicode="v" horiz-adv-x="557" 
d="M12 517h162q7 -23 46.5 -156.5t58.5 -207.5h3q10 45 25.5 100t41 141t36.5 123h160q-166 -474 -181 -517h-172q-119 338 -180 517z" />
    <glyph glyph-name="w" unicode="w" horiz-adv-x="843" 
d="M161 0l-149 517h157l46 -191q10 -39 38 -197h2q8 34 20 99t23 110l40 179h167l42 -183q8 -34 22 -107t20 -100h2q4 17 19 92t24 115l40 183h157l-151 -517h-181l-38 157q-31 122 -39 185h-4q-23 -121 -38 -183l-38 -159h-181z" />
    <glyph glyph-name="x" unicode="x" horiz-adv-x="564" 
d="M560 517l-198 -254l197 -263h-164l-115 153l-111 -153h-164l194 259l-195 258h164l114 -148l114 148h164z" />
    <glyph glyph-name="y" unicode="y" horiz-adv-x="557" 
d="M12 517h162q20 -69 56.5 -183t52.5 -167h2q10 45 25.5 98.5t38.5 130.5t36 121h160q-132 -376 -219 -621q-36 -96 -134 -96h-116v115h55q49 0 60 41l10 36q-35 98 -97 268.5t-92 256.5z" />
    <glyph glyph-name="z" unicode="z" horiz-adv-x="509" 
d="M32 113l256 291q-14 -1 -122 -1h-125v114h429v-113l-257 -291q15 0 40.5 1t47 1.5t44.5 0.5h140v-116h-453v113z" />
    <glyph glyph-name="braceleft" unicode="{" horiz-adv-x="369" 
d="M345 611h-20q-48 0 -48 -86v-123q0 -61 -30 -94.5t-57 -39.5v-3q28 -4 57.5 -36t29.5 -98v-123q0 -86 48 -86h20v-120h-100q-41 0 -74.5 35.5t-33.5 95.5v168q0 51 -23.5 74t-59.5 23v136q35 0 59 24.5t24 73.5v168q0 60 33.5 95.5t74.5 35.5h100v-120z" />
    <glyph glyph-name="bar" unicode="|" horiz-adv-x="230" 
d="M71 806h88v-1040h-88v1040z" />
    <glyph glyph-name="braceright" unicode="}" horiz-adv-x="369" 
d="M24 -78h20q48 0 48 86v123q0 66 29.5 98t57.5 36v3q-27 6 -57 39.5t-30 94.5v123q0 86 -48 86h-20v120h100q41 0 74.5 -35.5t33.5 -95.5v-168q0 -49 24 -73.5t59 -24.5v-136q-36 0 -59.5 -23t-23.5 -74v-168q0 -60 -33.5 -95.5t-74.5 -35.5h-100v120z" />
    <glyph glyph-name="asciitilde" unicode="~" horiz-adv-x="657" 
d="M595 263q-22 -47 -69.5 -80.5t-93.5 -33.5q-45 0 -102 33q-66 39 -115 39q-53 0 -84 -68l-69 81q26 53 68 85t90 32q38 0 111 -32q10 -4 34.5 -16.5t40 -18t27.5 -5.5q46 0 98 76z" />
    <glyph glyph-name="uni00A0" unicode="&#xa0;" horiz-adv-x="286" 
 />
    <glyph glyph-name="exclamdown" unicode="&#xa1;" horiz-adv-x="284" 
d="M63 386v130h158v-130h-158zM222 52v-250h-160v250l27 281h105z" />
    <glyph glyph-name="sterling" unicode="&#xa3;" horiz-adv-x="564" 
d="M505 95l50 -65q-54 -47 -153 -47q-35 0 -99 20q-63 21 -135 21q-48 0 -100 -35l-39 59q72 62 94 91q38 49 38 95q0 41 -26 93h-94v45h69q-48 85 -48 156q0 92 66.5 147.5t161.5 55.5q240 0 236 -238h-90q-2 87 -35.5 124.5t-105.5 37.5q-60 0 -101.5 -37t-41.5 -93
q0 -19 2.5 -35.5t9 -33.5t11 -27t15 -30t14.5 -27h173v-45h-151q20 -38 20 -75q0 -33 -10 -59.5t-32.5 -51.5t-45.5 -43t-63 -46l2 -2q70 40 128 40q53 0 107 -14q61 -18 84 -18q42 0 89 37z" />
    <glyph glyph-name="yen" unicode="&#xa5;" horiz-adv-x="564" 
d="M236 174h-141v60h141v42l-18 33h-123v60h92l-183 345h109l174 -353l169 353h104l-178 -345h93v-60h-126l-18 -33v-42h144v-60h-144v-174h-95v174z" />
    <glyph glyph-name="brokenbar" unicode="&#xa6;" horiz-adv-x="230" 
d="M149 411h-68v250h68v-250zM81 161h68v-250h-68v250z" />
    <glyph glyph-name="section" unicode="&#xa7;" horiz-adv-x="564" 
d="M392 551q-1 46 -31 75.5t-78 29.5q-42 0 -68.5 -22t-26.5 -64q0 -21 11 -39.5t35.5 -36.5t45 -30t57.5 -32q11 -6 17 -9q38 -21 62 -36.5t51 -39.5t40 -53.5t13 -64.5q0 -46 -33 -82t-83 -56q71 -49 71 -129q0 -71 -52.5 -115.5t-134.5 -44.5q-90 0 -147.5 49t-63.5 136
h85q1 -50 36.5 -80t87.5 -30q40 0 70.5 22t30.5 61q0 11 -3 21.5t-9.5 20.5t-13 18t-19 17.5t-21 16t-25 16t-26 15t-29 16t-28.5 15.5q-39 21 -64.5 37.5t-53.5 42.5t-42 58t-14 71q0 45 34 81.5t81 49.5q-54 51 -54 113q0 74 55.5 118t129.5 44q86 0 138 -45t54 -135h-85z
M121 329q0 -10 1.5 -19.5t6.5 -18.5t8 -15.5t12 -14.5t13 -12t15.5 -11.5t15 -10t17.5 -11t16 -9.5q80 -42 140 -83q72 30 72 93q0 12 -3 22.5t-11.5 21.5t-13.5 17.5t-19.5 17t-18.5 13.5t-21.5 14t-18.5 12q-108 64 -138 85q-31 -10 -52 -35t-21 -56z" />
    <glyph glyph-name="dieresis" unicode="&#xa8;" horiz-adv-x="330" 
d="M6 714h124v-120h-124v120zM200 714h124v-120h-124v120z" />
    <glyph glyph-name="copyright" unicode="&#xa9;" horiz-adv-x="820" 
d="M411 -24q-159 0 -272 110.5t-113 272.5q0 160 113.5 269.5t271.5 109.5t270.5 -109.5t112.5 -269.5q0 -162 -112.5 -272.5t-270.5 -110.5zM411 56q122 0 207 87t85 216q0 126 -85.5 212.5t-206.5 86.5q-123 0 -208.5 -86.5t-85.5 -212.5q0 -129 85.5 -216t208.5 -87z
M586 301q-34 -127 -175 -127q-77 0 -129 49t-52 136q0 84 53 134.5t130 50.5q67 0 112 -32t62 -95h-91q-23 48 -83 48q-35 0 -62.5 -29t-27.5 -77q0 -47 27.5 -76.5t62.5 -29.5q61 0 81 48h92z" />
    <glyph glyph-name="guillemotleft" unicode="&#xab;" horiz-adv-x="576" 
d="M52 275l110 204h120l-80 -204l80 -204h-120zM302 274l110 204h120l-80 -204l80 -204h-120z" />
    <glyph glyph-name="uni00AD" unicode="&#xad;" horiz-adv-x="417" 
d="M44 344h329v-130h-329v130z" />
    <glyph glyph-name="registered" unicode="&#xae;" horiz-adv-x="820" 
d="M411 -24q158 0 270.5 110.5t112.5 272.5q0 159 -113 269t-270 110q-158 0 -271.5 -109.5t-113.5 -269.5q0 -162 113 -272.5t272 -110.5zM411 56q-123 0 -208.5 87t-85.5 216q0 126 85.5 212.5t208.5 86.5q121 0 206.5 -86.5t85.5 -212.5q0 -129 -85 -216t-207 -87z
M542 273q25 -68 36 -85v-4h-89q-16 13 -36 77q-13 44 -54 46h-32v-123h-93v357h149q62 0 99.5 -27t37.5 -75q0 -41 -19 -67t-47 -33q8 -3 14 -7.5t9.5 -8t8 -11.5t6 -11t5.5 -14t5 -14zM416 380q24 0 39 12.5t15 31.5q0 39 -52 39h-51v-83h49z" />
    <glyph glyph-name="macron" unicode="&#xaf;" horiz-adv-x="397" 
d="M28 682h341v-65h-341v65z" />
    <glyph glyph-name="plusminus" unicode="&#xb1;" horiz-adv-x="608" 
d="M62 400h203v139h126v-139h203v-128h-203v-139h-126v139h-203v128zM62 78h532v-118h-532v118z" />
    <glyph glyph-name="acute" unicode="&#xb4;" horiz-adv-x="273" 
d="M107 714h162l-151 -143h-114z" />
    <glyph glyph-name="paragraph" unicode="&#xb6;" horiz-adv-x="608" 
d="M520 -155h-66v814h-125v-814h-66v461q-90 0 -151.5 60t-61.5 140q0 98 62 153t168 55h240v-869z" />
    <glyph glyph-name="periodcentered" unicode="&#xb7;" horiz-adv-x="286" 
d="M143 375q26 0 45 -19t19 -45q0 -24 -19.5 -44t-43.5 -20q-26 0 -45.5 19t-19.5 45t19 45t45 19z" />
    <glyph glyph-name="cedilla" unicode="&#xb8;" horiz-adv-x="272" 
d="M40 -141q29 -19 61 -19q24 0 43 7.5t19 23.5q0 14 -13 22.5t-34 8.5q-17 0 -41 -8l-27 39l60 67h53l-42 -53l2 -2q10 7 33 7q35 0 59.5 -19t24.5 -54q0 -46 -37.5 -67.5t-86.5 -21.5q-50 0 -93 20z" />
    <glyph glyph-name="guillemotright" unicode="&#xbb;" horiz-adv-x="576" 
d="M532 275l-110 -204h-120l80 204l-80 204h120zM282 274l-110 -204h-120l80 204l-80 204h120z" />
    <glyph glyph-name="questiondown" unicode="&#xbf;" horiz-adv-x="563" 
d="M372 361h-154v160h154v-160zM523 25v-20q0 -93 -62.5 -154t-171.5 -61q-110 0 -173.5 58t-63.5 147q0 35 16 69.5t30 51t41 45.5q5 6 26 26.5t28.5 29.5t16 26t8.5 33v27h154v-27q0 -46 -17.5 -82t-42.5 -59t-50 -43t-42.5 -44t-17.5 -51q0 -39 22 -61t64 -22
q41 0 63.5 25.5t24.5 65.5l1 20h146z" />
    <glyph glyph-name="Agrave" unicode="&#xc0;" horiz-adv-x="745" 
d="M201 877h164l106 -117h-140zM8 0l265 714h201l263 -714h-170l-60 172h-272l-60 -172h-167zM279 298h185l-92 276h-2z" />
    <glyph glyph-name="Aacute" unicode="&#xc1;" horiz-adv-x="745" 
d="M286 760l106 117h164l-130 -117h-140zM8 0l265 714h201l263 -714h-170l-60 172h-272l-60 -172h-167zM279 298h185l-92 276h-2z" />
    <glyph glyph-name="Acircumflex" unicode="&#xc2;" horiz-adv-x="745" 
d="M199 760l92 117h172l83 -117h-135l-36 56l-41 -56h-135zM8 0l265 714h201l263 -714h-170l-60 172h-272l-60 -172h-167zM279 298h185l-92 276h-2z" />
    <glyph glyph-name="Atilde" unicode="&#xc3;" horiz-adv-x="745" 
d="M201 760q5 61 33.5 96.5t75.5 35.5q27 0 68.5 -20t64.5 -20q33 0 39 39h62q-4 -60 -31 -97.5t-69 -37.5q-33 0 -77.5 24t-62.5 24q-33 0 -45 -44h-58zM8 0l265 714h201l263 -714h-170l-60 172h-272l-60 -172h-167zM279 298h185l-92 276h-2z" />
    <glyph glyph-name="Adieresis" unicode="&#xc4;" horiz-adv-x="745" 
d="M222 764v112h114v-112h-114zM406 764v112h114v-112h-114zM8 0l265 714h201l263 -714h-170l-60 172h-272l-60 -172h-167zM279 298h185l-92 276h-2z" />
    <glyph glyph-name="Aring" unicode="&#xc5;" horiz-adv-x="745" 
d="M260 861q0 46 33.5 79t79.5 33t79.5 -33t33.5 -79t-33.5 -79t-79.5 -33t-79.5 33t-33.5 79zM306 860q0 -29 19 -48.5t48 -19.5t48 19.5t19 48.5t-19 48.5t-48 19.5t-48 -19.5t-19 -48.5zM8 0l265 714h201l263 -714h-170l-60 172h-272l-60 -172h-167zM279 298h185l-92 276
h-2z" />
    <glyph glyph-name="AE" unicode="&#xc6;" horiz-adv-x="977" 
d="M8 0l378 714h546v-130h-288v-154h267v-126h-267v-174h291v-130h-451v179h-211l-88 -179h-177zM330 295h154v289h-12z" />
    <glyph glyph-name="Ccedilla" unicode="&#xc7;" horiz-adv-x="771" 
d="M30 356q0 166 103.5 268.5t261.5 102.5q133 0 219.5 -63.5t120.5 -182.5h-157q-50 110 -183 110q-87 0 -146 -65.5t-59 -169.5q0 -102 59.5 -167.5t145.5 -65.5q72 0 115.5 27t65.5 82h158q-28 -106 -103 -168.5t-187 -73.5l-88 -65l2 -2q37 27 88 27q35 0 60.5 -19.5
t25.5 -54.5q0 -46 -39 -68.5t-88 -22.5q-52 0 -106 27l42 52q19 -14 54 -14q42 0 42 24q0 25 -42 25q-30 0 -55 -19l-31 42l70 65q-153 5 -251 105t-98 264z" />
    <glyph glyph-name="Egrave" unicode="&#xc8;" horiz-adv-x="587" 
d="M158 877h164l106 -117h-140zM66 0v714h476v-136h-316v-153h295v-132h-295v-157h319v-136h-479z" />
    <glyph glyph-name="Eacute" unicode="&#xc9;" horiz-adv-x="587" 
d="M226 760l106 117h164l-130 -117h-140zM66 0v714h476v-136h-316v-153h295v-132h-295v-157h319v-136h-479z" />
    <glyph glyph-name="Ecircumflex" unicode="&#xca;" horiz-adv-x="587" 
d="M130 760l92 117h172l83 -117h-135l-36 56l-41 -56h-135zM66 0v714h476v-136h-316v-153h295v-132h-295v-157h319v-136h-479z" />
    <glyph glyph-name="Edieresis" unicode="&#xcb;" horiz-adv-x="587" 
d="M168 764v112h114v-112h-114zM352 764v112h114v-112h-114zM66 0v714h476v-136h-316v-153h295v-132h-295v-157h319v-136h-479z" />
    <glyph glyph-name="Igrave" unicode="&#xcc;" horiz-adv-x="263" 
d="M-14 877h164l106 -117h-140zM74 0v714h160v-714h-160z" />
    <glyph glyph-name="Iacute" unicode="&#xcd;" horiz-adv-x="263" 
d="M45 760l106 117h164l-130 -117h-140zM74 0v714h160v-714h-160z" />
    <glyph glyph-name="Icircumflex" unicode="&#xce;" horiz-adv-x="315" 
d="M-16 760l92 117h172l83 -117h-135l-36 56l-41 -56h-135zM78 0v714h160v-714h-160z" />
    <glyph glyph-name="Idieresis" unicode="&#xcf;" horiz-adv-x="316" 
d="M9 764v112h114v-112h-114zM193 764v112h114v-112h-114zM74 0v714h160v-714h-160z" />
    <glyph glyph-name="Eth" unicode="&#xd0;" horiz-adv-x="711" 
d="M12 319v68h54v327h226q187 0 288 -92t101 -258q0 -173 -100.5 -268.5t-288.5 -95.5h-226v319h-54zM226 136h64q109 0 168 57.5t59 170.5q0 106 -58.5 160t-166.5 54h-66v-191h165v-68h-165v-183z" />
    <glyph glyph-name="Ntilde" unicode="&#xd1;" horiz-adv-x="754" 
d="M212 760q5 61 33.5 96.5t75.5 35.5q27 0 68.5 -20t64.5 -20q32 0 39 39h62q-4 -60 -31 -97.5t-69 -37.5q-33 0 -77.5 24t-62.5 24q-33 0 -45 -44h-58zM66 0v714h218l177 -358q2 -4 75 -164q-3 60 -3 207v315h155v-714h-215l-149 300q-90 179 -105 219q2 -39 2 -227v-292
h-155z" />
    <glyph glyph-name="Ograve" unicode="&#xd2;" horiz-adv-x="814" 
d="M210 887h164l106 -117h-140zM30 357q0 101 43 185t130.5 136.5t203.5 52.5t203.5 -52.5t130.5 -136.5t43 -185t-43 -185t-130.5 -136.5t-203.5 -52.5t-203.5 52.5t-130.5 136.5t-43 185zM190 357q0 -103 59.5 -170.5t157.5 -67.5t157.5 67.5t59.5 170.5t-59.5 170.5
t-157.5 67.5t-157.5 -67.5t-59.5 -170.5z" />
    <glyph glyph-name="Oacute" unicode="&#xd3;" horiz-adv-x="814" 
d="M326 770l106 117h164l-130 -117h-140zM30 357q0 101 43 185t130.5 136.5t203.5 52.5t203.5 -52.5t130.5 -136.5t43 -185t-43 -185t-130.5 -136.5t-203.5 -52.5t-203.5 52.5t-130.5 136.5t-43 185zM190 357q0 -103 59.5 -170.5t157.5 -67.5t157.5 67.5t59.5 170.5
t-59.5 170.5t-157.5 67.5t-157.5 -67.5t-59.5 -170.5z" />
    <glyph glyph-name="Ocircumflex" unicode="&#xd4;" horiz-adv-x="814" 
d="M234 770l92 117h172l83 -117h-135l-36 56l-41 -56h-135zM30 357q0 101 43 185t130.5 136.5t203.5 52.5t203.5 -52.5t130.5 -136.5t43 -185t-43 -185t-130.5 -136.5t-203.5 -52.5t-203.5 52.5t-130.5 136.5t-43 185zM190 357q0 -103 59.5 -170.5t157.5 -67.5t157.5 67.5
t59.5 170.5t-59.5 170.5t-157.5 67.5t-157.5 -67.5t-59.5 -170.5z" />
    <glyph glyph-name="Otilde" unicode="&#xd5;" horiz-adv-x="814" 
d="M236 763q5 61 33.5 96.5t75.5 35.5q27 0 68.5 -20t64.5 -20q32 0 39 39h62q-4 -60 -31 -97.5t-69 -37.5q-33 0 -77.5 24t-62.5 24q-33 0 -45 -44h-58zM30 357q0 101 43 185t130.5 136.5t203.5 52.5t203.5 -52.5t130.5 -136.5t43 -185t-43 -185t-130.5 -136.5
t-203.5 -52.5t-203.5 52.5t-130.5 136.5t-43 185zM190 357q0 -103 59.5 -170.5t157.5 -67.5t157.5 67.5t59.5 170.5t-59.5 170.5t-157.5 67.5t-157.5 -67.5t-59.5 -170.5z" />
    <glyph glyph-name="Odieresis" unicode="&#xd6;" horiz-adv-x="814" 
d="M258 774v112h114v-112h-114zM442 774v112h114v-112h-114zM30 357q0 101 43 185t130.5 136.5t203.5 52.5t203.5 -52.5t130.5 -136.5t43 -185t-43 -185t-130.5 -136.5t-203.5 -52.5t-203.5 52.5t-130.5 136.5t-43 185zM190 357q0 -103 59.5 -170.5t157.5 -67.5t157.5 67.5
t59.5 170.5t-59.5 170.5t-157.5 67.5t-157.5 -67.5t-59.5 -170.5z" />
    <glyph glyph-name="multiply" unicode="&#xd7;" horiz-adv-x="634" 
d="M62 418l91 91l165 -165l164 165l90 -90l-165 -164l165 -165l-91 -91l-165 165l-164 -165l-90 90l165 164z" />
    <glyph glyph-name="Oslash" unicode="&#xd8;" horiz-adv-x="814" 
d="M30 357q0 101 43 185t130.5 136.5t203.5 52.5q138 0 236 -74l66 73l32 -30l-65 -71q108 -106 108 -272q0 -101 -43 -185t-130.5 -136.5t-203.5 -52.5q-146 0 -244 80l-75 -82l-33 29l75 83q-100 106 -100 264zM190 357q0 -89 44 -150l310 341q-56 47 -137 47
q-98 0 -157.5 -67.5t-59.5 -170.5zM262 173q59 -54 145 -54q98 0 157.5 67.5t59.5 170.5q0 93 -50 159z" />
    <glyph glyph-name="Ugrave" unicode="&#xd9;" horiz-adv-x="703" 
d="M186 877h164l106 -117h-140zM56 302v412h160v-412q0 -181 141 -181q130 0 130 181v412h160v-412q0 -146 -69.5 -232.5t-220.5 -86.5q-301 0 -301 319z" />
    <glyph glyph-name="Uacute" unicode="&#xda;" horiz-adv-x="703" 
d="M275 760l106 117h164l-130 -117h-140zM56 302v412h160v-412q0 -181 141 -181q130 0 130 181v412h160v-412q0 -146 -69.5 -232.5t-220.5 -86.5q-301 0 -301 319z" />
    <glyph glyph-name="Ucircumflex" unicode="&#xdb;" horiz-adv-x="703" 
d="M178 760l92 117h172l83 -117h-135l-36 56l-41 -56h-135zM56 302v412h160v-412q0 -181 141 -181q130 0 130 181v412h160v-412q0 -146 -69.5 -232.5t-220.5 -86.5q-301 0 -301 319z" />
    <glyph glyph-name="Udieresis" unicode="&#xdc;" horiz-adv-x="703" 
d="M200 764v112h114v-112h-114zM384 764v112h114v-112h-114zM56 302v412h160v-412q0 -181 141 -181q130 0 130 181v412h160v-412q0 -146 -69.5 -232.5t-220.5 -86.5q-301 0 -301 319z" />
    <glyph glyph-name="Yacute" unicode="&#xdd;" horiz-adv-x="661" 
d="M255 760l106 117h164l-130 -117h-140zM16 714h181l137 -294h1l136 294h174l-236 -446v-268h-160v268z" />
    <glyph glyph-name="Thorn" unicode="&#xde;" horiz-adv-x="656" 
d="M82 0v714h95v-114h218q106 0 162.5 -55.5t56.5 -156.5t-56.5 -156t-162.5 -54h-218v-178h-95zM177 258h186q156 -1 156 130q0 132 -156 132h-186v-262z" />
    <glyph glyph-name="germandbls" unicode="&#xdf;" horiz-adv-x="544" 
d="M243 437q53 0 71 22.5t18 69.5q0 45 -13 68.5t-52 23.5q-69 0 -69 -107v-514h-150v531q0 93 64.5 146.5t158.5 53.5q90 0 151 -44t61 -133q0 -78 -46 -120t-98 -44v-4q64 1 120.5 -47.5t56.5 -136.5q0 -98 -60 -155t-171 -57q-29 0 -44 2v110q12 -1 35 -1q90 0 90 115
q0 57 -20 83.5t-70 30.5q-7 1 -33 1v106z" />
    <glyph glyph-name="agrave" unicode="&#xe0;" horiz-adv-x="569" 
d="M378 571h-114l-151 143h162zM513 140q0 -111 12 -140h-151q-8 21 -8 60v7h-1q-38 -82 -155 -82q-80 0 -132 43t-52 113q0 21 5 40t12 33t20.5 26.5t23.5 20.5t29.5 15.5t29.5 11.5t32 8.5t29 5.5t28.5 4t22.5 3q11 2 27 3.5t24 2.5t18.5 3.5t16 5t10.5 7t7 11.5t2 16
q0 32 -21 49.5t-56 17.5t-57.5 -18.5t-23.5 -51.5h-146q6 78 65 129t162 51q110 0 168.5 -57.5t58.5 -173.5v-164zM258 88q47 0 78.5 39t31.5 107v30q-19 -36 -99 -52q-89 -18 -89 -67q0 -24 19.5 -40.5t58.5 -16.5z" />
    <glyph glyph-name="aacute" unicode="&#xe1;" horiz-adv-x="569" 
d="M478 714l-151 -143h-114l103 143h162zM513 140q0 -111 12 -140h-151q-8 21 -8 60v7h-1q-38 -82 -155 -82q-80 0 -132 43t-52 113q0 21 5 40t12 33t20.5 26.5t23.5 20.5t29.5 15.5t29.5 11.5t32 8.5t29 5.5t28.5 4t22.5 3q11 2 27 3.5t24 2.5t18.5 3.5t16 5t10.5 7t7 11.5
t2 16q0 32 -21 49.5t-56 17.5t-57.5 -18.5t-23.5 -51.5h-146q6 78 65 129t162 51q110 0 168.5 -57.5t58.5 -173.5v-164zM258 88q47 0 78.5 39t31.5 107v30q-19 -36 -99 -52q-89 -18 -89 -67q0 -24 19.5 -40.5t58.5 -16.5z" />
    <glyph glyph-name="acircumflex" unicode="&#xe2;" horiz-adv-x="569" 
d="M283 648l-53 -69h-119l111 135h121l112 -135h-120zM513 140q0 -111 12 -140h-151q-8 21 -8 60v7h-1q-38 -82 -155 -82q-80 0 -132 43t-52 113q0 21 5 40t12 33t20.5 26.5t23.5 20.5t29.5 15.5t29.5 11.5t32 8.5t29 5.5t28.5 4t22.5 3q11 2 27 3.5t24 2.5t18.5 3.5t16 5
t10.5 7t7 11.5t2 16q0 32 -21 49.5t-56 17.5t-57.5 -18.5t-23.5 -51.5h-146q6 78 65 129t162 51q110 0 168.5 -57.5t58.5 -173.5v-164zM258 88q47 0 78.5 39t31.5 107v30q-19 -36 -99 -52q-89 -18 -89 -67q0 -24 19.5 -40.5t58.5 -16.5z" />
    <glyph glyph-name="atilde" unicode="&#xe3;" horiz-adv-x="569" 
d="M211 646q-29 0 -42 -48h-58q7 55 35 87.5t74 32.5q27 0 70 -20t66 -20q29 0 36 43h62q-6 -52 -28 -82q-30 -41 -72 -41q-38 0 -78 21q-5 3 -16 9t-17 9t-15 6t-17 3zM513 140q0 -111 12 -140h-151q-8 21 -8 60v7h-1q-38 -82 -155 -82q-80 0 -132 43t-52 113q0 21 5 40
t12 33t20.5 26.5t23.5 20.5t29.5 15.5t29.5 11.5t32 8.5t29 5.5t28.5 4t22.5 3q11 2 27 3.5t24 2.5t18.5 3.5t16 5t10.5 7t7 11.5t2 16q0 32 -21 49.5t-56 17.5t-57.5 -18.5t-23.5 -51.5h-146q6 78 65 129t162 51q110 0 168.5 -57.5t58.5 -173.5v-164zM258 88q47 0 78.5 39
t31.5 107v30q-19 -36 -99 -52q-89 -18 -89 -67q0 -24 19.5 -40.5t58.5 -16.5z" />
    <glyph glyph-name="adieresis" unicode="&#xe4;" horiz-adv-x="569" 
d="M250 714v-120h-124v120h124zM444 714v-120h-124v120h124zM513 140q0 -111 12 -140h-151q-8 21 -8 60v7h-1q-38 -82 -155 -82q-80 0 -132 43t-52 113q0 21 5 40t12 33t20.5 26.5t23.5 20.5t29.5 15.5t29.5 11.5t32 8.5t29 5.5t28.5 4t22.5 3q11 2 27 3.5t24 2.5t18.5 3.5
t16 5t10.5 7t7 11.5t2 16q0 32 -21 49.5t-56 17.5t-57.5 -18.5t-23.5 -51.5h-146q6 78 65 129t162 51q110 0 168.5 -57.5t58.5 -173.5v-164zM258 88q47 0 78.5 39t31.5 107v30q-19 -36 -99 -52q-89 -18 -89 -67q0 -24 19.5 -40.5t58.5 -16.5z" />
    <glyph glyph-name="aring" unicode="&#xe5;" horiz-adv-x="569" 
d="M286 565q-46 0 -79.5 33t-33.5 79t33.5 79t79.5 33t79.5 -33t33.5 -79t-33.5 -79t-79.5 -33zM286 733q-25 0 -40.5 -16t-15.5 -41t15.5 -41t40.5 -16t40.5 16t15.5 41t-15.5 41t-40.5 16zM513 140q0 -111 12 -140h-151q-8 21 -8 60v7h-1q-38 -82 -155 -82q-80 0 -132 43
t-52 113q0 21 5 40t12 33t20.5 26.5t23.5 20.5t29.5 15.5t29.5 11.5t32 8.5t29 5.5t28.5 4t22.5 3q11 2 27 3.5t24 2.5t18.5 3.5t16 5t10.5 7t7 11.5t2 16q0 32 -21 49.5t-56 17.5t-57.5 -18.5t-23.5 -51.5h-146q6 78 65 129t162 51q110 0 168.5 -57.5t58.5 -173.5v-164z
M258 88q47 0 78.5 39t31.5 107v30q-19 -36 -99 -52q-89 -18 -89 -67q0 -24 19.5 -40.5t58.5 -16.5z" />
    <glyph glyph-name="ae" unicode="&#xe6;" horiz-adv-x="903" 
d="M26 141q0 21 5 40t12 33t20.5 26.5t23.5 20.5t29.5 15.5t29.5 11.5t32 8.5t29 5.5t28.5 4t22.5 3q11 2 27 3.5t24 2.5t18.5 3.5t16 5t10.5 7t7 11.5t2 16q0 32 -21 49.5t-56 17.5t-57.5 -18.5t-23.5 -51.5h-146q6 78 65 129t162 51q117 0 175 -64q69 63 170 63
q115 0 180.5 -79.5t65.5 -207.5q0 -18 -1 -30h-360q6 -54 37 -84.5t79 -30.5q65 0 93 49h147q-23 -76 -88 -122.5t-156 -46.5q-71 0 -127 31.5t-89 88.5q-57 -117 -198 -117q-80 0 -134 43t-54 113zM518 318h212q-12 103 -101 103q-45 0 -74.5 -27.5t-36.5 -75.5zM180 145
q0 -24 19.5 -40.5t58.5 -16.5q47 0 78.5 38.5t31.5 107.5v30h-1q-19 -36 -98 -52q-89 -18 -89 -67z" />
    <glyph glyph-name="ccedilla" unicode="&#xe7;" horiz-adv-x="584" 
d="M309 101q38 0 69 20t39 60h141q-12 -88 -73.5 -139t-149.5 -58l-29 -37l2 -2q10 7 33 7q35 0 59.5 -19t24.5 -54q0 -46 -37.5 -67.5t-86.5 -21.5q-50 0 -93 20l19 49q29 -19 61 -19q24 0 43 7.5t19 23.5q0 14 -13 22.5t-34 8.5q-17 0 -41 -8l-27 39l46 51
q-108 10 -181.5 83t-73.5 192q0 128 83 201t200 73q95 0 166 -52t83 -142h-142q-23 76 -107 76q-53 0 -93 -39t-40 -117t39.5 -118t93.5 -40z" />
    <glyph glyph-name="egrave" unicode="&#xe8;" horiz-adv-x="588" 
d="M373 571h-114l-151 143h162zM562 247q0 -18 -1 -30h-383q7 -54 40 -84.5t83 -30.5q69 0 99 49h155q-25 -76 -93 -122.5t-165 -46.5q-119 0 -195 76.5t-76 200.5q0 119 77.5 197t196.5 78q123 0 192.5 -79.5t69.5 -207.5zM180 318h230q-6 50 -35.5 76.5t-76.5 26.5
t-79 -27.5t-39 -75.5z" />
    <glyph glyph-name="eacute" unicode="&#xe9;" horiz-adv-x="588" 
d="M494 714l-151 -143h-114l103 143h162zM562 247q0 -18 -1 -30h-383q7 -54 40 -84.5t83 -30.5q69 0 99 49h155q-25 -76 -93 -122.5t-165 -46.5q-119 0 -195 76.5t-76 200.5q0 119 77.5 197t196.5 78q123 0 192.5 -79.5t69.5 -207.5zM180 318h230q-6 50 -35.5 76.5
t-76.5 26.5t-79 -27.5t-39 -75.5z" />
    <glyph glyph-name="ecircumflex" unicode="&#xea;" horiz-adv-x="588" 
d="M296 648l-53 -69h-119l111 135h121l112 -135h-120zM562 247q0 -18 -1 -30h-383q7 -54 40 -84.5t83 -30.5q69 0 99 49h155q-25 -76 -93 -122.5t-165 -46.5q-119 0 -195 76.5t-76 200.5q0 119 77.5 197t196.5 78q123 0 192.5 -79.5t69.5 -207.5zM180 318h230
q-6 50 -35.5 76.5t-76.5 26.5t-79 -27.5t-39 -75.5z" />
    <glyph glyph-name="edieresis" unicode="&#xeb;" horiz-adv-x="588" 
d="M261 714v-120h-124v120h124zM455 714v-120h-124v120h124zM562 247q0 -18 -1 -30h-383q7 -54 40 -84.5t83 -30.5q69 0 99 49h155q-25 -76 -93 -122.5t-165 -46.5q-119 0 -195 76.5t-76 200.5q0 119 77.5 197t196.5 78q123 0 192.5 -79.5t69.5 -207.5zM180 318h230
q-6 50 -35.5 76.5t-76.5 26.5t-79 -27.5t-39 -75.5z" />
    <glyph glyph-name="igrave" unicode="&#xec;" horiz-adv-x="266" 
d="M109 714l103 -143h-114l-151 143h162zM56 0v517h154v-517h-154z" />
    <glyph glyph-name="iacute" unicode="&#xed;" horiz-adv-x="266" 
d="M127 714h162l-151 -143h-114zM56 0v517h154v-517h-154z" />
    <glyph glyph-name="icircumflex" unicode="&#xee;" horiz-adv-x="266" 
d="M-39 579l111 135h121l112 -135h-120l-52 69l-53 -69h-119zM56 0v517h154v-517h-154z" />
    <glyph glyph-name="idieresis" unicode="&#xef;" horiz-adv-x="266" 
d="M-26 714h124v-120h-124v120zM168 714h124v-120h-124v120zM56 0v517h154v-517h-154z" />
    <glyph glyph-name="ntilde" unicode="&#xf1;" 
d="M243 646q-29 0 -42 -48h-58q7 55 35 87.5t74 32.5q27 0 70 -20t66 -20q29 0 36 43h62q-6 -52 -28 -82q-30 -41 -72 -41q-38 0 -78 21q-5 3 -16 9t-17 9t-15 6t-17 3zM358 535q186 0 186 -231v-304h-154v258q0 33 -2.5 56t-10.5 47t-26 36.5t-46 12.5q-97 0 -97 -165v-245
h-154v517h152v-87q41 105 152 105z" />
    <glyph glyph-name="ograve" unicode="&#xf2;" horiz-adv-x="605" 
d="M270 714l103 -143h-114l-151 143h162zM303 -17q-116 0 -196.5 74t-80.5 202q0 127 80.5 200.5t196.5 73.5q115 0 195.5 -73.5t80.5 -200.5t-80.5 -201.5t-195.5 -74.5zM303 105q51 0 85.5 40.5t34.5 113.5t-35 112.5t-85 39.5t-85.5 -40t-35.5 -112q0 -73 35 -113.5
t86 -40.5z" />
    <glyph glyph-name="oacute" unicode="&#xf3;" horiz-adv-x="605" 
d="M334 714h162l-151 -143h-114zM303 -17q-116 0 -196.5 74t-80.5 202q0 127 80.5 200.5t196.5 73.5q115 0 195.5 -73.5t80.5 -200.5t-80.5 -201.5t-195.5 -74.5zM303 105q51 0 85.5 40.5t34.5 113.5t-35 112.5t-85 39.5t-85.5 -40t-35.5 -112q0 -73 35 -113.5t86 -40.5z
" />
    <glyph glyph-name="ocircumflex" unicode="&#xf4;" horiz-adv-x="605" 
d="M126 579l111 135h121l112 -135h-120l-52 69l-53 -69h-119zM303 -17q-116 0 -196.5 74t-80.5 202q0 127 80.5 200.5t196.5 73.5q115 0 195.5 -73.5t80.5 -200.5t-80.5 -201.5t-195.5 -74.5zM303 105q51 0 85.5 40.5t34.5 113.5t-35 112.5t-85 39.5t-85.5 -40t-35.5 -112
q0 -73 35 -113.5t86 -40.5z" />
    <glyph glyph-name="otilde" unicode="&#xf5;" horiz-adv-x="605" 
d="M413 721h62q-6 -52 -28 -82q-30 -41 -72 -41q-38 0 -78 21q-5 3 -16 9t-17 9t-15 6t-17 3q-29 0 -42 -48h-58q7 55 35 87.5t74 32.5q27 0 70 -20t66 -20q29 0 36 43zM303 -17q-116 0 -196.5 74t-80.5 202q0 127 80.5 200.5t196.5 73.5q115 0 195.5 -73.5t80.5 -200.5
t-80.5 -201.5t-195.5 -74.5zM303 105q51 0 85.5 40.5t34.5 113.5t-35 112.5t-85 39.5t-85.5 -40t-35.5 -112q0 -73 35 -113.5t86 -40.5z" />
    <glyph glyph-name="odieresis" unicode="&#xf6;" horiz-adv-x="605" 
d="M142 714h124v-120h-124v120zM336 714h124v-120h-124v120zM303 -17q-116 0 -196.5 74t-80.5 202q0 127 80.5 200.5t196.5 73.5q115 0 195.5 -73.5t80.5 -200.5t-80.5 -201.5t-195.5 -74.5zM303 105q51 0 85.5 40.5t34.5 113.5t-35 112.5t-85 39.5t-85.5 -40t-35.5 -112
q0 -73 35 -113.5t86 -40.5z" />
    <glyph glyph-name="divide" unicode="&#xf7;" horiz-adv-x="608" 
d="M212 481q0 37 27 64.5t65 27.5t65 -27.5t27 -64.5q0 -35 -27.5 -63.5t-63.5 -28.5q-38 0 -65.5 27.5t-27.5 64.5zM38 338h532v-128h-532v128zM212 61q0 37 27 64.5t65 27.5t65 -27.5t27 -64.5q0 -35 -27.5 -63.5t-63.5 -28.5q-38 0 -65.5 27.5t-27.5 64.5z" />
    <glyph glyph-name="oslash" unicode="&#xf8;" horiz-adv-x="570" 
d="M507 451q72 -75 72 -192q0 -127 -80.5 -201.5t-195.5 -74.5q-99 0 -170 53l-56 -62l-28 24l55 61q-78 76 -78 200q0 127 80.5 200.5t196.5 73.5q102 0 176 -57l50 55l26 -26zM182 259q0 -54 20 -91l185 205q-35 38 -84 38q-50 0 -85.5 -40t-35.5 -112zM303 105
q51 0 85.5 40.5t34.5 113.5q0 47 -16 82l-183 -203q33 -33 79 -33z" />
    <glyph glyph-name="ugrave" unicode="&#xf9;" 
d="M372 571h-114l-151 143h162zM384 517h154v-517h-152v87q-41 -105 -152 -105q-186 0 -186 231v304h154v-258q0 -33 2.5 -56t10.5 -47t26 -36.5t46 -12.5q97 0 97 165v245z" />
    <glyph glyph-name="uacute" unicode="&#xfa;" 
d="M485 714l-151 -143h-114l103 143h162zM384 517h154v-517h-152v87q-41 -105 -152 -105q-186 0 -186 231v304h154v-258q0 -33 2.5 -56t10.5 -47t26 -36.5t46 -12.5q97 0 97 165v245z" />
    <glyph glyph-name="ucircumflex" unicode="&#xfb;" 
d="M295 648l-53 -69h-119l111 135h121l112 -135h-120zM384 517h154v-517h-152v87q-41 -105 -152 -105q-186 0 -186 231v304h154v-258q0 -33 2.5 -56t10.5 -47t26 -36.5t46 -12.5q97 0 97 165v245z" />
    <glyph glyph-name="udieresis" unicode="&#xfc;" 
d="M261 714v-120h-124v120h124zM455 714v-120h-124v120h124zM384 517h154v-517h-152v87q-41 -105 -152 -105q-186 0 -186 231v304h154v-258q0 -33 2.5 -56t10.5 -47t26 -36.5t46 -12.5q97 0 97 165v245z" />
    <glyph glyph-name="yacute" unicode="&#xfd;" horiz-adv-x="557" 
d="M322 714h162l-151 -143h-114zM12 517h162q20 -69 56.5 -183t52.5 -167h2q10 45 25.5 98.5t38.5 130.5t36 121h160q-132 -376 -219 -621q-36 -96 -134 -96h-116v115h55q49 0 60 41l10 36q-35 98 -97 268.5t-92 256.5z" />
    <glyph glyph-name="ydieresis" unicode="&#xff;" horiz-adv-x="557" 
d="M126 714h124v-120h-124v120zM320 714h124v-120h-124v120zM12 517h162q20 -69 56.5 -183t52.5 -167h2q10 45 25.5 98.5t38.5 130.5t36 121h160q-132 -376 -219 -621q-36 -96 -134 -96h-116v115h55q49 0 60 41l10 36q-35 98 -97 268.5t-92 256.5z" />
    <glyph glyph-name="Amacron" unicode="&#x100;" horiz-adv-x="745" 
d="M198 794v61h349v-61h-349zM8 0l265 714h201l263 -714h-170l-60 172h-272l-60 -172h-167zM279 298h185l-92 276h-2z" />
    <glyph glyph-name="amacron" unicode="&#x101;" horiz-adv-x="569" 
d="M457 682v-65h-341v65h341zM513 140q0 -111 12 -140h-151q-8 21 -8 60v7h-1q-38 -82 -155 -82q-80 0 -132 43t-52 113q0 21 5 40t12 33t20.5 26.5t23.5 20.5t29.5 15.5t29.5 11.5t32 8.5t29 5.5t28.5 4t22.5 3q11 2 27 3.5t24 2.5t18.5 3.5t16 5t10.5 7t7 11.5t2 16
q0 32 -21 49.5t-56 17.5t-57.5 -18.5t-23.5 -51.5h-146q6 78 65 129t162 51q110 0 168.5 -57.5t58.5 -173.5v-164zM258 88q47 0 78.5 39t31.5 107v30q-19 -36 -99 -52q-89 -18 -89 -67q0 -24 19.5 -40.5t58.5 -16.5z" />
    <glyph glyph-name="Abreve" unicode="&#x102;" horiz-adv-x="745" 
d="M214 904h72q6 -35 25.5 -51t61.5 -16t61.5 16t25.5 51h72q-9 -62 -52 -100t-107 -38t-107 38t-52 100zM8 0l265 714h201l263 -714h-170l-60 172h-272l-60 -172h-167zM279 298h185l-92 276h-2z" />
    <glyph glyph-name="abreve" unicode="&#x103;" horiz-adv-x="569" 
d="M288 571q-70 0 -115 40t-49 108h54q24 -83 110 -83q40 0 62 20.5t39 62.5h56q-8 -68 -51 -108t-106 -40zM513 140q0 -111 12 -140h-151q-8 21 -8 60v7h-1q-38 -82 -155 -82q-80 0 -132 43t-52 113q0 21 5 40t12 33t20.5 26.5t23.5 20.5t29.5 15.5t29.5 11.5t32 8.5
t29 5.5t28.5 4t22.5 3q11 2 27 3.5t24 2.5t18.5 3.5t16 5t10.5 7t7 11.5t2 16q0 32 -21 49.5t-56 17.5t-57.5 -18.5t-23.5 -51.5h-146q6 78 65 129t162 51q110 0 168.5 -57.5t58.5 -173.5v-164zM258 88q47 0 78.5 39t31.5 107v30q-19 -36 -99 -52q-89 -18 -89 -67
q0 -24 19.5 -40.5t58.5 -16.5z" />
    <glyph glyph-name="Aogonek" unicode="&#x104;" horiz-adv-x="745" 
d="M8 0l265 714h201l263 -714h-142q-84 -72 -84 -118q0 -17 9.5 -29.5t28.5 -12.5q38 0 62 30l32 -18q-36 -62 -108 -62q-92 0 -92 82q0 12 8.5 30t38 48t75.5 55l-58 167h-272l-60 -172h-167zM279 298h185l-92 276h-2z" />
    <glyph glyph-name="aogonek" unicode="&#x105;" horiz-adv-x="569" 
d="M406 -160q38 0 62 30l32 -18q-36 -62 -108 -62q-37 0 -64.5 20t-27.5 61q0 46 38 84q32 32 78 45h-42q-8 21 -8 60v7h-1q-38 -82 -155 -82q-80 0 -132 43t-52 113q0 21 5 40t12 33t20.5 26.5t23.5 20.5t29.5 15.5t29.5 11.5t32 8.5t29 5.5t28.5 4t22.5 3q11 2 27 3.5
t24 2.5t18.5 3.5t16 5t10.5 7t7 11.5t2 16q0 32 -21 49.5t-56 17.5t-57.5 -18.5t-23.5 -51.5h-146q6 78 65 129t162 51q110 0 168.5 -57.5t58.5 -173.5v-164q0 -111 12 -140h-53q-52 -14 -85 -57q-29 -37 -23 -70t42 -33zM258 88q47 0 78.5 39t31.5 107v30q-19 -36 -99 -52
q-89 -18 -89 -67q0 -24 19.5 -40.5t58.5 -16.5z" />
    <glyph glyph-name="Cacute" unicode="&#x106;" horiz-adv-x="771" 
d="M316 770l106 117h164l-130 -117h-140zM734 232q-31 -118 -120.5 -181.5t-221.5 -63.5q-158 0 -260 100.5t-102 268.5q0 166 103.5 268.5t261.5 102.5q133 0 219.5 -63.5t120.5 -182.5h-157q-50 110 -183 110q-87 0 -146 -65.5t-59 -169.5q0 -102 59.5 -167.5t145.5 -65.5
q72 0 115.5 27t65.5 82h158z" />
    <glyph glyph-name="cacute" unicode="&#x107;" horiz-adv-x="584" 
d="M319 714h162l-151 -143h-114zM558 181q-13 -94 -83 -146t-166 -52q-117 0 -200 74.5t-83 201.5q0 128 83 201t200 73q95 0 166 -52t83 -142h-142q-23 76 -107 76q-53 0 -93 -39t-40 -117t39.5 -118t93.5 -40q38 0 69 20t39 60h141z" />
    <glyph glyph-name="Ccircumflex" unicode="&#x108;" horiz-adv-x="771" 
d="M219 770l92 117h172l83 -117h-135l-36 56l-41 -56h-135zM30 356q0 166 103.5 268.5t261.5 102.5q133 0 219.5 -63.5t120.5 -182.5h-157q-50 110 -183 110q-87 0 -146 -65.5t-59 -169.5q0 -102 59.5 -167.5t145.5 -65.5q72 0 115.5 27t65.5 82h158q-31 -118 -120.5 -181.5
t-221.5 -63.5q-158 0 -260 100.5t-102 268.5z" />
    <glyph glyph-name="ccircumflex" unicode="&#x109;" horiz-adv-x="584" 
d="M133 579l111 135h121l112 -135h-120l-52 69l-53 -69h-119zM558 181q-13 -94 -83 -146t-166 -52q-117 0 -200 74.5t-83 201.5q0 128 83 201t200 73q95 0 166 -52t83 -142h-142q-23 76 -107 76q-53 0 -93 -39t-40 -117t39.5 -118t93.5 -40q38 0 69 20t39 60h141z" />
    <glyph glyph-name="Cdotaccent" unicode="&#x10a;" horiz-adv-x="771" 
d="M331 785v110h130v-110h-130zM734 232q-31 -118 -120.5 -181.5t-221.5 -63.5q-158 0 -260 100.5t-102 268.5q0 166 103.5 268.5t261.5 102.5q133 0 219.5 -63.5t120.5 -182.5h-157q-50 110 -183 110q-87 0 -146 -65.5t-59 -169.5q0 -102 59.5 -167.5t145.5 -65.5
q72 0 115.5 27t65.5 82h158z" />
    <glyph glyph-name="cdotaccent" unicode="&#x10b;" horiz-adv-x="584" 
d="M344 606h-90v104h90v-104zM558 181q-13 -94 -83 -146t-166 -52q-117 0 -200 74.5t-83 201.5q0 128 83 201t200 73q95 0 166 -52t83 -142h-142q-23 76 -107 76q-53 0 -93 -39t-40 -117t39.5 -118t93.5 -40q38 0 69 20t39 60h141z" />
    <glyph glyph-name="Ccaron" unicode="&#x10c;" horiz-adv-x="771" 
d="M221 887h135l41 -56l36 56h135l-83 -117h-172zM30 356q0 166 103.5 268.5t261.5 102.5q133 0 219.5 -63.5t120.5 -182.5h-157q-50 110 -183 110q-87 0 -146 -65.5t-59 -169.5q0 -102 59.5 -167.5t145.5 -65.5q72 0 115.5 27t65.5 82h158q-31 -118 -120.5 -181.5
t-221.5 -63.5q-158 0 -260 100.5t-102 268.5z" />
    <glyph glyph-name="ccaron" unicode="&#x10d;" horiz-adv-x="584" 
d="M365 579h-121l-111 135h119l53 -69l52 69h120zM309 101q38 0 69 20t39 60h141q-13 -94 -83 -146t-166 -52q-117 0 -200 74.5t-83 201.5q0 128 83 201t200 73q95 0 166 -52t83 -142h-142q-23 76 -107 76q-53 0 -93 -39t-40 -117t39.5 -118t93.5 -40z" />
    <glyph glyph-name="Dcaron" unicode="&#x10e;" horiz-adv-x="711" 
d="M161 877h135l41 -56l36 56h135l-83 -117h-172zM66 0v714h226q187 0 288 -92t101 -258q0 -173 -100.5 -268.5t-288.5 -95.5h-226zM226 136h64q109 0 168 57.5t59 170.5q0 106 -58.5 160t-166.5 54h-66v-442z" />
    <glyph glyph-name="dcaron" unicode="&#x10f;" horiz-adv-x="623" 
d="M411 439v275h164v-714h-163v81h-1q-20 -49 -62 -74.5t-96 -25.5q-95 0 -161 77t-66 201q0 123 66 199.5t161 76.5q51 0 95.5 -28t62.5 -68zM642 714h109l-75 -143h-60zM304 106q51 0 87 40t36 113l-1 20q-5 63 -40 97t-82 34q-49 0 -85.5 -41.5t-36.5 -109.5
q0 -69 36.5 -111t85.5 -42z" />
    <glyph glyph-name="Dcroat" unicode="&#x110;" horiz-adv-x="711" 
d="M12 319v68h54v327h226q187 0 288 -92t101 -258q0 -173 -100.5 -268.5t-288.5 -95.5h-226v319h-54zM226 136h64q109 0 168 57.5t59 170.5q0 106 -58.5 160t-166.5 54h-66v-191h165v-68h-165v-183z" />
    <glyph glyph-name="dcroat" unicode="&#x111;" horiz-adv-x="623" 
d="M645 639v-56h-70v-583h-163v81h-1q-20 -49 -62 -74.5t-96 -25.5q-95 0 -161 77t-66 201q0 123 66 199.5t161 76.5q51 0 95.5 -28t62.5 -68v144h-107v56h107v75h164v-75h70zM304 106q51 0 87 40t36 113l-1 20q-5 63 -40 97t-82 34q-49 0 -85.5 -41.5t-36.5 -109.5
q0 -69 36.5 -111t85.5 -42z" />
    <glyph glyph-name="Emacron" unicode="&#x112;" horiz-adv-x="587" 
d="M154 795v61h349v-61h-349zM66 0v714h476v-136h-316v-153h295v-132h-295v-157h319v-136h-479z" />
    <glyph glyph-name="emacron" unicode="&#x113;" horiz-adv-x="588" 
d="M469 682v-65h-341v65h341zM562 247q0 -18 -1 -30h-383q7 -54 40 -84.5t83 -30.5q69 0 99 49h155q-25 -76 -93 -122.5t-165 -46.5q-119 0 -195 76.5t-76 200.5q0 119 77.5 197t196.5 78q123 0 192.5 -79.5t69.5 -207.5zM180 318h230q-6 50 -35.5 76.5t-76.5 26.5
t-79 -27.5t-39 -75.5z" />
    <glyph glyph-name="Ebreve" unicode="&#x114;" horiz-adv-x="587" 
d="M158 904h72q6 -35 25.5 -51t61.5 -16t61.5 16t25.5 51h72q-9 -62 -52 -100t-107 -38t-107 38t-52 100zM66 0v714h476v-136h-316v-153h295v-132h-295v-157h319v-136h-479z" />
    <glyph glyph-name="ebreve" unicode="&#x115;" horiz-adv-x="588" 
d="M303 571q-70 0 -115 40t-49 108h54q24 -83 110 -83q40 0 62 20.5t39 62.5h56q-8 -68 -51 -108t-106 -40zM562 247q0 -18 -1 -30h-383q7 -54 40 -84.5t83 -30.5q69 0 99 49h155q-25 -76 -93 -122.5t-165 -46.5q-119 0 -195 76.5t-76 200.5q0 119 77.5 197t196.5 78
q123 0 192.5 -79.5t69.5 -207.5zM180 318h230q-6 50 -35.5 76.5t-76.5 26.5t-79 -27.5t-39 -75.5z" />
    <glyph glyph-name="Edotaccent" unicode="&#x116;" horiz-adv-x="587" 
d="M264 785v110h130v-110h-130zM66 0v714h476v-136h-316v-153h295v-132h-295v-157h319v-136h-479z" />
    <glyph glyph-name="edotaccent" unicode="&#x117;" horiz-adv-x="588" 
d="M339 708v-104h-90v104h90zM562 247q0 -18 -1 -30h-383q7 -54 40 -84.5t83 -30.5q69 0 99 49h155q-25 -76 -93 -122.5t-165 -46.5q-119 0 -195 76.5t-76 200.5q0 119 77.5 197t196.5 78q123 0 192.5 -79.5t69.5 -207.5zM180 318h230q-6 50 -35.5 76.5t-76.5 26.5
t-79 -27.5t-39 -75.5z" />
    <glyph glyph-name="Eogonek" unicode="&#x118;" horiz-adv-x="621" 
d="M66 0v714h476v-136h-316v-153h295v-132h-295v-157h319v-136h-14q-84 -70 -84 -118q0 -17 9.5 -29.5t28.5 -12.5q38 0 62 30l32 -18q-36 -62 -108 -62q-92 0 -92 82q0 8 4 19.5t14.5 29.5t35 39t58.5 40h-425z" />
    <glyph glyph-name="eogonek" unicode="&#x119;" horiz-adv-x="588" 
d="M562 247q0 -18 -1 -30h-383q7 -54 40 -84.5t83 -30.5q69 0 99 49h155q-22 -67 -79 -112t-138 -55l-22 -22q-42 -42 -42 -80q0 -17 9.5 -29.5t28.5 -12.5q38 0 62 30l32 -18q-36 -62 -108 -62q-92 0 -92 82q0 40 53 88q6 6 28 22q-116 4 -188.5 80t-72.5 197
q0 119 77.5 197t196.5 78q123 0 192.5 -79.5t69.5 -207.5zM180 318h230q-6 50 -35.5 76.5t-76.5 26.5t-79 -27.5t-39 -75.5z" />
    <glyph glyph-name="Ecaron" unicode="&#x11a;" horiz-adv-x="587" 
d="M144 877h135l41 -56l36 56h135l-83 -117h-172zM66 0v714h476v-136h-316v-153h295v-132h-295v-157h319v-136h-479z" />
    <glyph glyph-name="ecaron" unicode="&#x11b;" horiz-adv-x="588" 
d="M356 579h-121l-111 135h119l53 -69l52 69h120zM562 247q0 -18 -1 -30h-383q7 -54 40 -84.5t83 -30.5q69 0 99 49h155q-25 -76 -93 -122.5t-165 -46.5q-119 0 -195 76.5t-76 200.5q0 119 77.5 197t196.5 78q123 0 192.5 -79.5t69.5 -207.5zM180 318h230q-6 50 -35.5 76.5
t-76.5 26.5t-79 -27.5t-39 -75.5z" />
    <glyph glyph-name="Gcircumflex" unicode="&#x11c;" horiz-adv-x="773" 
d="M212 770l92 117h172l83 -117h-135l-36 56l-41 -56h-135zM30 357q0 101 42.5 185t129.5 136.5t203 52.5q131 0 211 -67t111 -177h-163q-39 108 -159 108q-101 0 -158 -66t-57 -172t57.5 -172t158.5 -66q76 0 124 39t66 107h-200v120h328l-9 -385h-96l-10 96
q-67 -113 -224 -113q-154 0 -254.5 110.5t-100.5 263.5z" />
    <glyph glyph-name="gcircumflex" unicode="&#x11d;" horiz-adv-x="633" 
d="M126 579l111 135h121l112 -135h-120l-52 69l-53 -69h-119zM415 517h164v-453q0 -70 -21.5 -120.5t-61 -78.5t-86 -40.5t-103.5 -12.5q-111 0 -179.5 51.5t-82.5 128.5h151q18 -67 109 -67q110 0 110 108v63h-1q-24 -41 -68.5 -62t-91.5 -21q-103 0 -165.5 68t-62.5 190
q0 123 63 193.5t165 70.5q45 0 90 -24t70 -65h1v71zM194 271q0 -62 33.5 -99t83.5 -37q49 0 82 37t33 99t-33 100.5t-82 38.5q-50 0 -83.5 -38.5t-33.5 -100.5z" />
    <glyph glyph-name="Gbreve" unicode="&#x11e;" horiz-adv-x="773" 
d="M223 904h72q6 -35 25.5 -51t61.5 -16t61.5 16t25.5 51h72q-9 -62 -52 -100t-107 -38t-107 38t-52 100zM30 357q0 101 42.5 185t129.5 136.5t203 52.5q131 0 211 -67t111 -177h-163q-39 108 -159 108q-101 0 -158 -66t-57 -172t57.5 -172t158.5 -66q76 0 124 39t66 107
h-200v120h328l-9 -385h-96l-10 96q-67 -113 -224 -113q-154 0 -254.5 110.5t-100.5 263.5z" />
    <glyph glyph-name="gbreve" unicode="&#x11f;" horiz-adv-x="633" 
d="M178 719q24 -83 110 -83q40 0 62 20.5t39 62.5h56q-8 -68 -51 -108t-106 -40q-70 0 -115 40t-49 108h54zM415 517h164v-453q0 -70 -21.5 -120.5t-61 -78.5t-86 -40.5t-103.5 -12.5q-111 0 -179.5 51.5t-82.5 128.5h151q18 -67 109 -67q110 0 110 108v63h-1
q-24 -41 -68.5 -62t-91.5 -21q-103 0 -165.5 68t-62.5 190q0 123 63 193.5t165 70.5q45 0 90 -24t70 -65h1v71zM194 271q0 -62 33.5 -99t83.5 -37q49 0 82 37t33 99t-33 100.5t-82 38.5q-50 0 -83.5 -38.5t-33.5 -100.5z" />
    <glyph glyph-name="Gdotaccent" unicode="&#x120;" horiz-adv-x="773" 
d="M324 785v110h130v-110h-130zM30 357q0 101 42.5 185t129.5 136.5t203 52.5q131 0 211 -67t111 -177h-163q-39 108 -159 108q-101 0 -158 -66t-57 -172t57.5 -172t158.5 -66q76 0 124 39t66 107h-200v120h328l-9 -385h-96l-10 96q-67 -113 -224 -113q-154 0 -254.5 110.5
t-100.5 263.5z" />
    <glyph glyph-name="gdotaccent" unicode="&#x121;" horiz-adv-x="633" 
d="M314 604h-90v104h90v-104zM415 517h164v-453q0 -70 -21.5 -120.5t-61 -78.5t-86 -40.5t-103.5 -12.5q-111 0 -179.5 51.5t-82.5 128.5h151q18 -67 109 -67q110 0 110 108v63h-1q-24 -41 -68.5 -62t-91.5 -21q-103 0 -165.5 68t-62.5 190q0 123 63 193.5t165 70.5
q45 0 90 -24t70 -65h1v71zM194 271q0 -62 33.5 -99t83.5 -37q49 0 82 37t33 99t-33 100.5t-82 38.5q-50 0 -83.5 -38.5t-33.5 -100.5z" />
    <glyph glyph-name="uni0122" unicode="&#x122;" horiz-adv-x="773" 
d="M30 357q0 101 42.5 185t129.5 136.5t203 52.5q131 0 211 -67t111 -177h-163q-39 108 -159 108q-101 0 -158 -66t-57 -172t57.5 -172t158.5 -66q76 0 124 39t66 107h-200v120h328l-9 -385h-96l-10 96q-67 -113 -224 -113q-154 0 -254.5 110.5t-100.5 263.5zM330 -138v88
h111v-77q0 -41 -26.5 -62t-72.5 -21v35q19 5 28.5 12.5t10.5 11.5t1 13h-52z" />
    <glyph glyph-name="uni0123" unicode="&#x123;" horiz-adv-x="633" 
d="M333 626h-111v77q0 41 26.5 62t72.5 21v-35q-19 -5 -28.5 -12.5t-10.5 -11.5t-1 -13h52v-88zM415 517h164v-453q0 -70 -21.5 -120.5t-61 -78.5t-86 -40.5t-103.5 -12.5q-111 0 -179.5 51.5t-82.5 128.5h151q18 -67 109 -67q110 0 110 108v63h-1q-24 -41 -68.5 -62
t-91.5 -21q-103 0 -165.5 68t-62.5 190q0 123 63 193.5t165 70.5q45 0 90 -24t70 -65h1v71zM194 271q0 -62 33.5 -99t83.5 -37q49 0 82 37t33 99t-33 100.5t-82 38.5q-50 0 -83.5 -38.5t-33.5 -100.5z" />
    <glyph glyph-name="Hcircumflex" unicode="&#x124;" horiz-adv-x="724" 
d="M189 760l92 117h172l83 -117h-135l-36 56l-41 -56h-135zM66 0v714h160v-288h272v288h160v-714h-160v290h-272v-290h-160z" />
    <glyph glyph-name="hcircumflex" unicode="&#x125;" 
d="M287 816l-41 -56h-135l92 117h172l83 -117h-135zM358 535q186 0 186 -231v-304h-154v258q0 33 -2.5 56t-10.5 47t-26 36.5t-46 12.5q-97 0 -97 -165v-245h-154v714h154v-197l-1 -85q41 103 151 103z" />
    <glyph glyph-name="Hbar" unicode="&#x126;" horiz-adv-x="724" 
d="M66 0v714h160v-198h272v198h160v-714h-160v290h-272v-290h-160zM226 426h272v36h-272v-36z" />
    <glyph glyph-name="hbar" unicode="&#x127;" 
d="M358 535q186 0 186 -231v-304h-154v258q0 33 -2.5 56t-10.5 47t-26 36.5t-46 12.5q-97 0 -97 -165v-245h-154v583h-81v56h81v75h154v-75h94v-56h-94v-66l-1 -85q41 103 151 103z" />
    <glyph glyph-name="Itilde" unicode="&#x128;" horiz-adv-x="288" 
d="M-33 760q5 61 33.5 96.5t75.5 35.5q27 0 68.5 -20t64.5 -20q33 0 39 39h62q-4 -60 -31 -97.5t-69 -37.5q-33 0 -77.5 24t-62.5 24q-33 0 -45 -44h-58zM74 0v714h160v-714h-160z" />
    <glyph glyph-name="itilde" unicode="&#x129;" horiz-adv-x="266" 
d="M243 721h62q-6 -52 -28 -82q-30 -41 -72 -41q-38 0 -78 21q-5 3 -16 9t-17 9t-15 6t-17 3q-29 0 -42 -48h-58q7 55 35 87.5t74 32.5q27 0 70 -20t66 -20q29 0 36 43zM56 0v517h154v-517h-154z" />
    <glyph glyph-name="Imacron" unicode="&#x12a;" horiz-adv-x="263" 
d="M-39 817v55h341v-55h-341zM74 0v714h160v-714h-160z" />
    <glyph glyph-name="imacron" unicode="&#x12b;" horiz-adv-x="266" 
d="M-38 682h341v-65h-341v65zM56 0v517h154v-517h-154z" />
    <glyph glyph-name="Iogonek" unicode="&#x12e;" horiz-adv-x="263" 
d="M42 -128q0 13 6 29.5t30.5 45t64.5 53.5h-69v714h160v-714h-55q-46 -43 -60.5 -67.5t-14.5 -50.5q0 -19 9 -30.5t25 -11.5q32 0 56 30l28 -18q-34 -62 -91 -62q-89 0 -89 82z" />
    <glyph glyph-name="iogonek" unicode="&#x12f;" horiz-adv-x="284" 
d="M223 714v-134h-158v134h158zM204 -130l28 -18q-32 -62 -97 -62q-83 0 -83 82q0 12 6 28.5t30.5 45.5t64.5 54h-85v517h154v-517h-33q-44 -42 -59.5 -67.5t-15.5 -50.5q0 -17 8.5 -29.5t25.5 -12.5q35 0 56 30z" />
    <glyph glyph-name="Idotaccent" unicode="&#x130;" horiz-adv-x="263" 
d="M109 794v104h90v-104h-90zM74 0v714h160v-714h-160z" />
    <glyph glyph-name="dotlessi" unicode="&#x131;" horiz-adv-x="266" 
d="M56 0v517h154v-517h-154z" />
    <glyph glyph-name="ij" unicode="&#x133;" horiz-adv-x="536" 
d="M210 580h-158v134h158v-134zM481 583h-154v131h154v-131zM54 0v517h154v-517h-154zM482 517v-523q0 -98 -36.5 -144.5t-137.5 -46.5h-64v115h21q41 0 54 17t13 69v513h150z" />
    <glyph glyph-name="Jcircumflex" unicode="&#x134;" horiz-adv-x="521" 
d="M239 760l92 117h172l83 -117h-135l-36 56l-41 -56h-135zM18 220h160q3 -103 80 -103q76 0 76 98v499h160v-482q0 -125 -58 -185t-178 -60q-119 0 -176 60t-64 173z" />
    <glyph glyph-name="jcircumflex" unicode="&#x135;" horiz-adv-x="274" 
d="M-32 579l111 135h121l112 -135h-120l-52 69l-53 -69h-119zM220 517v-523q0 -98 -36.5 -144.5t-137.5 -46.5h-64v115h21q41 0 54 17t13 69v513h150z" />
    <glyph glyph-name="uni0136" unicode="&#x136;" horiz-adv-x="674" 
d="M66 0v714h160v-301l263 301h192l-272 -303l270 -411h-183l-189 297l-81 -91v-206h-160zM286 -138v88h111v-77q0 -41 -26.5 -62t-72.5 -21v35q19 5 28.5 12.5t10.5 11.5t1 13h-52z" />
    <glyph glyph-name="uni0137" unicode="&#x137;" horiz-adv-x="575" 
d="M351 291l226 -291h-182l-142 188l-45 -47v-141h-154v714h154v-396l176 199h184zM240 -148v88h111v-77q0 -41 -26.5 -62t-72.5 -21v35q19 5 28.5 12.5t10.5 11.5t1 13h-52z" />
    <glyph glyph-name="Lacute" unicode="&#x139;" horiz-adv-x="563" 
d="M65 760l106 117h164l-130 -117h-140zM66 0v714h160v-578h320v-136h-480z" />
    <glyph glyph-name="lacute" unicode="&#x13a;" horiz-adv-x="270" 
d="M147 877h164l-130 -117h-140zM58 714h154v-714h-154v714z" />
    <glyph glyph-name="uni013B" unicode="&#x13b;" horiz-adv-x="560" 
d="M66 0v714h160v-578h320v-136h-480zM243 -138v88h111v-77q0 -41 -26.5 -62t-72.5 -21v35q19 5 28.5 12.5t10.5 11.5t1 13h-52z" />
    <glyph glyph-name="uni013C" unicode="&#x13c;" horiz-adv-x="270" 
d="M58 714h154v-714h-154v714zM75 -50h111v-77q0 -41 -26.5 -62t-72.5 -21v35q19 5 28.5 12.5t10.5 11.5t1 13h-52v88z" />
    <glyph glyph-name="Lcaron" unicode="&#x13d;" horiz-adv-x="560" 
d="M66 0v714h160v-578h320v-136h-480zM280 571l26 143h109l-75 -143h-60z" />
    <glyph glyph-name="lcaron" unicode="&#x13e;" horiz-adv-x="270" 
d="M58 714h154v-714h-154v714zM286 714h109l-75 -143h-60z" />
    <glyph glyph-name="Ldot" unicode="&#x13f;" horiz-adv-x="560" 
d="M66 0v714h160v-578h320v-136h-480zM309 413v104h90v-104h-90z" />
    <glyph glyph-name="ldot" unicode="&#x140;" horiz-adv-x="270" 
d="M58 714h154v-714h-154v714zM352 413h-90v104h90v-104z" />
    <glyph glyph-name="Lslash" unicode="&#x141;" horiz-adv-x="560" 
d="M0 184v76l66 47v407h160v-294l176 124v-76l-176 -124v-208h320v-136h-480v231z" />
    <glyph glyph-name="lslash" unicode="&#x142;" horiz-adv-x="270" 
d="M277 445l-65 -41v-404h-154v307l-66 -41v71l66 42v335h154v-238l64 41z" />
    <glyph glyph-name="Nacute" unicode="&#x143;" horiz-adv-x="754" 
d="M285 760l106 117h164l-130 -117h-140zM66 0v714h218l177 -358q2 -4 75 -164q-3 60 -3 207v315h155v-714h-215l-149 300q-90 179 -105 219q2 -39 2 -227v-292h-155z" />
    <glyph glyph-name="nacute" unicode="&#x144;" 
d="M518 714l-151 -143h-114l103 143h162zM358 535q186 0 186 -231v-304h-154v258q0 33 -2.5 56t-10.5 47t-26 36.5t-46 12.5q-97 0 -97 -165v-245h-154v517h152v-87q41 105 152 105z" />
    <glyph glyph-name="uni0145" unicode="&#x145;" horiz-adv-x="754" 
d="M66 0v714h218l177 -358q2 -4 75 -164q-3 60 -3 207v315h155v-714h-215l-149 300q-90 179 -105 219q2 -39 2 -227v-292h-155zM312 -138v88h111v-77q0 -41 -26.5 -62t-72.5 -21v35q19 5 28.5 12.5t10.5 11.5t1 13h-52z" />
    <glyph glyph-name="uni0146" unicode="&#x146;" 
d="M358 535q186 0 186 -231v-304h-154v258q0 33 -2.5 56t-10.5 47t-26 36.5t-46 12.5q-97 0 -97 -165v-245h-154v517h152v-87q41 105 152 105zM249 -138v88h111v-77q0 -41 -26.5 -62t-72.5 -21v35q19 5 28.5 12.5t10.5 11.5t1 13h-52z" />
    <glyph glyph-name="Ncaron" unicode="&#x147;" horiz-adv-x="754" 
d="M194 877h135l41 -56l36 56h135l-83 -117h-172zM66 0v714h218l177 -358q2 -4 75 -164q-3 60 -3 207v315h155v-714h-215l-149 300q-90 179 -105 219q2 -39 2 -227v-292h-155z" />
    <glyph glyph-name="ncaron" unicode="&#x148;" 
d="M378 579h-121l-111 135h119l53 -69l52 69h120zM358 535q186 0 186 -231v-304h-154v258q0 33 -2.5 56t-10.5 47t-26 36.5t-46 12.5q-97 0 -97 -165v-245h-154v517h152v-87q41 105 152 105z" />
    <glyph glyph-name="napostrophe" unicode="&#x149;" 
d="M8 677q19 5 28.5 12.5t10.5 11.5t1 13h-52v88h111v-77q0 -41 -26.5 -62t-72.5 -21v35zM358 535q186 0 186 -231v-304h-154v258q0 33 -2.5 56t-10.5 47t-26 36.5t-46 12.5q-97 0 -97 -165v-245h-154v517h152v-87q41 105 152 105z" />
    <glyph glyph-name="Omacron" unicode="&#x14c;" horiz-adv-x="814" 
d="M237 817v55h341v-55h-341zM30 357q0 101 43 185t130.5 136.5t203.5 52.5t203.5 -52.5t130.5 -136.5t43 -185t-43 -185t-130.5 -136.5t-203.5 -52.5t-203.5 52.5t-130.5 136.5t-43 185zM190 357q0 -103 59.5 -170.5t157.5 -67.5t157.5 67.5t59.5 170.5t-59.5 170.5
t-157.5 67.5t-157.5 -67.5t-59.5 -170.5z" />
    <glyph glyph-name="omacron" unicode="&#x14d;" horiz-adv-x="605" 
d="M129 682h341v-65h-341v65zM303 -17q-116 0 -196.5 74t-80.5 202q0 127 80.5 200.5t196.5 73.5q115 0 195.5 -73.5t80.5 -200.5t-80.5 -201.5t-195.5 -74.5zM303 105q51 0 85.5 40.5t34.5 113.5t-35 112.5t-85 39.5t-85.5 -40t-35.5 -112q0 -73 35 -113.5t86 -40.5z" />
    <glyph glyph-name="Obreve" unicode="&#x14e;" horiz-adv-x="814" 
d="M251 919h50q24 -83 112 -83q40 0 61 20t38 63h51q-11 -65 -52 -101.5t-106 -36.5q-134 0 -154 138zM30 357q0 101 43 185t130.5 136.5t203.5 52.5t203.5 -52.5t130.5 -136.5t43 -185t-43 -185t-130.5 -136.5t-203.5 -52.5t-203.5 52.5t-130.5 136.5t-43 185zM190 357
q0 -103 59.5 -170.5t157.5 -67.5t157.5 67.5t59.5 170.5t-59.5 170.5t-157.5 67.5t-157.5 -67.5t-59.5 -170.5z" />
    <glyph glyph-name="obreve" unicode="&#x14f;" horiz-adv-x="605" 
d="M189 719q24 -83 110 -83q40 0 62 20.5t39 62.5h56q-8 -68 -51 -108t-106 -40q-70 0 -115 40t-49 108h54zM303 -17q-116 0 -196.5 74t-80.5 202q0 127 80.5 200.5t196.5 73.5q115 0 195.5 -73.5t80.5 -200.5t-80.5 -201.5t-195.5 -74.5zM303 105q51 0 85.5 40.5
t34.5 113.5t-35 112.5t-85 39.5t-85.5 -40t-35.5 -112q0 -73 35 -113.5t86 -40.5z" />
    <glyph glyph-name="Ohungarumlaut" unicode="&#x150;" horiz-adv-x="814" 
d="M286 779l81 143h105l-120 -143h-66zM442 779l81 143h105l-120 -143h-66zM30 357q0 101 43 185t130.5 136.5t203.5 52.5t203.5 -52.5t130.5 -136.5t43 -185t-43 -185t-130.5 -136.5t-203.5 -52.5t-203.5 52.5t-130.5 136.5t-43 185zM190 357q0 -103 59.5 -170.5
t157.5 -67.5t157.5 67.5t59.5 170.5t-59.5 170.5t-157.5 67.5t-157.5 -67.5t-59.5 -170.5z" />
    <glyph glyph-name="ohungarumlaut" unicode="&#x151;" horiz-adv-x="605" 
d="M254 732h105l-120 -143h-66zM410 732h105l-120 -143h-66zM303 -17q-116 0 -196.5 74t-80.5 202q0 127 80.5 200.5t196.5 73.5q115 0 195.5 -73.5t80.5 -200.5t-80.5 -201.5t-195.5 -74.5zM303 105q51 0 85.5 40.5t34.5 113.5t-35 112.5t-85 39.5t-85.5 -40t-35.5 -112
q0 -73 35 -113.5t86 -40.5z" />
    <glyph glyph-name="OE" unicode="&#x152;" horiz-adv-x="1119" 
d="M30 357q0 101 43 185t130.5 136.5t203.5 52.5q124 0 205 -70v53h462v-136h-302v-153h281v-132h-281v-157h305v-136h-465v53q-81 -70 -205 -70q-116 0 -203.5 52.5t-130.5 136.5t-43 185zM190 357q0 -103 59.5 -170.5t157.5 -67.5t157.5 67.5t59.5 170.5q0 102 -60 170
t-157 68q-98 0 -157.5 -67.5t-59.5 -170.5z" />
    <glyph glyph-name="oe" unicode="&#x153;" horiz-adv-x="942" 
d="M916 247q0 -12 -1 -24h-366q4 -58 35 -89.5t82 -31.5q62 0 90 53h154q-24 -78 -87.5 -122.5t-161.5 -44.5q-121 0 -181 77q-64 -78 -181 -78q-115 0 -194 73.5t-79 198.5q0 124 79 197t194 73q118 0 183 -80q63 79 182 79q123 0 187.5 -76t64.5 -205zM552 316h216
q-13 105 -105 105q-48 0 -77 -27.5t-34 -77.5zM299 101q51 0 83.5 40.5t32.5 117.5t-33 116.5t-83 39.5t-83.5 -39.5t-33.5 -116.5t33 -117.5t84 -40.5z" />
    <glyph glyph-name="Racute" unicode="&#x154;" horiz-adv-x="671" 
d="M249 760l106 117h164l-130 -117h-140zM66 1v713h287q123 0 194.5 -55t71.5 -148q0 -77 -38.5 -126.5t-97.5 -65.5q51 -19 76 -77q7 -16 25 -68q6 -17 14.5 -45t14 -44t15 -37t21.5 -39v-9h-162q-12 12 -21.5 31.5t-15 35.5t-14 46.5t-13.5 45.5q-17 53 -45.5 78.5
t-89.5 25.5h-62v-262h-160zM226 391h117q55 0 87.5 26.5t32.5 71.5t-32 71t-88 26h-117v-195z" />
    <glyph glyph-name="racute" unicode="&#x155;" horiz-adv-x="374" 
d="M170 714h162l-151 -143h-114zM358 376q-75 6 -112.5 -32t-37.5 -100v-244h-154v517h149v-88h2q37 101 153 102v-155z" />
    <glyph glyph-name="uni0156" unicode="&#x156;" horiz-adv-x="671" 
d="M66 1v713h287q123 0 194.5 -55t71.5 -148q0 -77 -38.5 -126.5t-97.5 -65.5q51 -19 76 -77q7 -16 25 -68q6 -17 14.5 -45t14 -44t15 -37t21.5 -39v-9h-162q-12 12 -21.5 31.5t-15 35.5t-14 46.5t-13.5 45.5q-17 53 -45.5 78.5t-89.5 25.5h-62v-262h-160zM226 391h117
q55 0 87.5 26.5t32.5 71.5t-32 71t-88 26h-117v-195zM299 -138v88h111v-77q0 -41 -26.5 -62t-72.5 -21v35q19 5 28.5 12.5t10.5 11.5t1 13h-52z" />
    <glyph glyph-name="uni0157" unicode="&#x157;" horiz-adv-x="374" 
d="M358 376q-75 6 -112.5 -32t-37.5 -100v-244h-154v517h149v-88h2q37 101 153 102v-155zM77 -50h111v-77q0 -41 -26.5 -62t-72.5 -21v35q19 5 28.5 12.5t10.5 11.5t1 13h-52v88z" />
    <glyph glyph-name="Rcaron" unicode="&#x158;" horiz-adv-x="671" 
d="M161 877h135l41 -56l36 56h135l-83 -117h-172zM66 1v713h287q123 0 194.5 -55t71.5 -148q0 -77 -38.5 -126.5t-97.5 -65.5q51 -19 76 -77q7 -16 25 -68q6 -17 14.5 -45t14 -44t15 -37t21.5 -39v-9h-162q-12 12 -21.5 31.5t-15 35.5t-14 46.5t-13.5 45.5
q-17 53 -45.5 78.5t-89.5 25.5h-62v-262h-160zM226 391h117q55 0 87.5 26.5t32.5 71.5t-32 71t-88 26h-117v-195z" />
    <glyph glyph-name="rcaron" unicode="&#x159;" horiz-adv-x="374" 
d="M280 579h-121l-111 135h119l53 -69l52 69h120zM205 429q37 101 153 102v-155q-75 6 -112.5 -32t-37.5 -100v-244h-154v517h149v-88h2z" />
    <glyph glyph-name="Sacute" unicode="&#x15a;" horiz-adv-x="640" 
d="M250 760l106 117h164l-130 -117h-140zM30 241h166q4 -56 42 -90.5t94 -34.5q116 0 116 82q0 28 -20.5 47t-42.5 27t-75 22q-12 3 -18 5q-50 14 -87 30t-72 42.5t-53.5 67t-18.5 93.5q0 65 40.5 111.5t99.5 67t128 20.5q115 0 188.5 -58t80.5 -179h-160q-7 104 -114 104
q-46 0 -75 -18.5t-29 -55.5q0 -36 34.5 -57.5t109.5 -42.5q45 -12 74 -22t64 -28.5t55.5 -41t34.5 -57.5t14 -79q0 -70 -41 -119.5t-101.5 -71.5t-131.5 -22q-123 0 -205.5 66t-96.5 192z" />
    <glyph glyph-name="sacute" unicode="&#x15b;" horiz-adv-x="498" 
d="M277 714h162l-151 -143h-114zM323 364q-14 63 -78 63q-29 0 -46.5 -15t-17.5 -35q0 -26 27 -40t113 -34q83 -19 119 -56t36 -96q0 -73 -57.5 -121t-165.5 -48q-207 0 -231 180h152q11 -70 79 -70q34 0 51.5 14t17.5 37q0 30 -22 43t-101 32q-85 21 -124 55.5t-39 95.5
q0 70 57.5 118t151.5 48q95 0 152 -44.5t68 -126.5h-142z" />
    <glyph glyph-name="Scircumflex" unicode="&#x15c;" horiz-adv-x="640" 
d="M155 760l92 117h172l83 -117h-135l-36 56l-41 -56h-135zM30 241h166q4 -56 42 -90.5t94 -34.5q116 0 116 82q0 28 -20.5 47t-42.5 27t-75 22q-12 3 -18 5q-50 14 -87 30t-72 42.5t-53.5 67t-18.5 93.5q0 65 40.5 111.5t99.5 67t128 20.5q115 0 188.5 -58t80.5 -179h-160
q-7 104 -114 104q-46 0 -75 -18.5t-29 -55.5q0 -36 34.5 -57.5t109.5 -42.5q45 -12 74 -22t64 -28.5t55.5 -41t34.5 -57.5t14 -79q0 -70 -41 -119.5t-101.5 -71.5t-131.5 -22q-123 0 -205.5 66t-96.5 192z" />
    <glyph glyph-name="scircumflex" unicode="&#x15d;" horiz-adv-x="498" 
d="M80 579l111 135h121l112 -135h-120l-52 69l-53 -69h-119zM323 364q-14 63 -78 63q-29 0 -46.5 -15t-17.5 -35q0 -26 27 -40t113 -34q83 -19 119 -56t36 -96q0 -73 -57.5 -121t-165.5 -48q-207 0 -231 180h152q11 -70 79 -70q34 0 51.5 14t17.5 37q0 30 -22 43t-101 32
q-85 21 -124 55.5t-39 95.5q0 70 57.5 118t151.5 48q95 0 152 -44.5t68 -126.5h-142z" />
    <glyph glyph-name="Scedilla" unicode="&#x15e;" horiz-adv-x="640" 
d="M30 241h166q4 -56 42 -90.5t94 -34.5q116 0 116 82q0 28 -20.5 47t-42.5 27t-75 22q-12 3 -18 5q-50 14 -87 30t-72 42.5t-53.5 67t-18.5 93.5q0 65 40.5 111.5t99.5 67t128 20.5q115 0 188.5 -58t80.5 -179h-160q-7 104 -114 104q-46 0 -75 -18.5t-29 -55.5
q0 -36 34.5 -57.5t109.5 -42.5q45 -12 74 -22t64 -28.5t55.5 -41t34.5 -57.5t14 -79q0 -94 -69 -148.5t-170 -63.5l-81 -59l2 -2q37 27 88 27q35 0 60.5 -19.5t25.5 -54.5q0 -46 -39 -68.5t-88 -22.5q-52 0 -106 27l42 52q19 -14 54 -14q42 0 42 24q0 25 -42 25
q-30 0 -55 -19l-31 42l67 62q-113 7 -188 72.5t-88 184.5z" />
    <glyph glyph-name="scedilla" unicode="&#x15f;" horiz-adv-x="498" 
d="M476 151q0 -68 -50 -115t-144 -53l-29 -36l2 -2q10 7 33 7q35 0 59.5 -19t24.5 -54q0 -46 -37.5 -67.5t-86.5 -21.5q-50 0 -93 20l19 49q29 -19 61 -19q24 0 43 7.5t19 23.5q0 14 -13 22.5t-34 8.5q-17 0 -41 -8l-27 39l45 50q-182 11 -205 179h152q11 -70 79 -70
q34 0 51.5 14t17.5 37q0 30 -22 43t-101 32q-85 21 -124 55.5t-39 95.5q0 70 57.5 118t151.5 48q95 0 152 -44.5t68 -126.5h-142q-14 63 -78 63q-29 0 -46.5 -15t-17.5 -35q0 -26 27 -40t113 -34q83 -19 119 -56t36 -96z" />
    <glyph glyph-name="Scaron" unicode="&#x160;" horiz-adv-x="640" 
d="M154 877h135l41 -56l36 56h135l-83 -117h-172zM30 241h166q4 -56 42 -90.5t94 -34.5q116 0 116 82q0 28 -20.5 47t-42.5 27t-75 22q-12 3 -18 5q-50 14 -87 30t-72 42.5t-53.5 67t-18.5 93.5q0 65 40.5 111.5t99.5 67t128 20.5q115 0 188.5 -58t80.5 -179h-160
q-7 104 -114 104q-46 0 -75 -18.5t-29 -55.5q0 -36 34.5 -57.5t109.5 -42.5q45 -12 74 -22t64 -28.5t55.5 -41t34.5 -57.5t14 -79q0 -70 -41 -119.5t-101.5 -71.5t-131.5 -22q-123 0 -205.5 66t-96.5 192z" />
    <glyph glyph-name="scaron" unicode="&#x161;" horiz-adv-x="498" 
d="M305 579h-121l-111 135h119l53 -69l52 69h120zM321 303q83 -19 119 -56t36 -96q0 -73 -57.5 -121t-165.5 -48q-207 0 -231 180h152q11 -70 79 -70q34 0 51.5 14t17.5 37q0 30 -22 43t-101 32q-85 21 -124 55.5t-39 95.5q0 70 57.5 118t151.5 48q95 0 152 -44.5t68 -126.5
h-142q-14 63 -78 63q-29 0 -46.5 -15t-17.5 -35q0 -26 27 -40t113 -34z" />
    <glyph glyph-name="Tcaron" unicode="&#x164;" horiz-adv-x="590" 
d="M122 877h135l41 -56l36 56h135l-83 -117h-172zM14 578v136h562v-136h-201v-578h-160v578h-201z" />
    <glyph glyph-name="tcaron" unicode="&#x165;" horiz-adv-x="369" 
d="M381 714h109l-75 -143h-60zM245 697v-180h104v-114h-104v-176q0 -57 13.5 -85t51.5 -28h30v-114h-76q-101 0 -137 50.5t-36 150.5v202h-85v114h85v100l149 80h5z" />
    <glyph glyph-name="Tbar" unicode="&#x166;" horiz-adv-x="590" 
d="M14 578v136h562v-136h-201v-122h150v-55h-150v-401h-160v401h-150v55h150v122h-201z" />
    <glyph glyph-name="tbar" unicode="&#x167;" horiz-adv-x="369" 
d="M349 403h-104v-59h96v-53h-96v-64q0 -57 13.5 -85t51.5 -28h30v-114h-76q-101 0 -137 50.5t-36 150.5v90h-90v53h90v59h-85v114h85v100l149 80h5v-180h104v-114z" />
    <glyph glyph-name="Utilde" unicode="&#x168;" horiz-adv-x="703" 
d="M180 760q5 61 33.5 96.5t75.5 35.5q27 0 68.5 -20t64.5 -20q32 0 39 39h62q-4 -60 -31 -97.5t-69 -37.5q-33 0 -77.5 24t-62.5 24q-33 0 -45 -44h-58zM56 302v412h160v-412q0 -181 141 -181q130 0 130 181v412h160v-412q0 -146 -69.5 -232.5t-220.5 -86.5
q-301 0 -301 319z" />
    <glyph glyph-name="utilde" unicode="&#x169;" 
d="M224 646q-29 0 -42 -48h-58q7 55 35 87.5t74 32.5q27 0 70 -20t66 -20q29 0 36 43h62q-6 -52 -28 -82q-30 -41 -72 -41q-38 0 -78 21q-5 3 -16 9t-17 9t-15 6t-17 3zM384 517h154v-517h-152v87q-41 -105 -152 -105q-186 0 -186 231v304h154v-258q0 -33 2.5 -56t10.5 -47
t26 -36.5t46 -12.5q97 0 97 165v245z" />
    <glyph glyph-name="Umacron" unicode="&#x16a;" horiz-adv-x="703" 
d="M177 795v61h349v-61h-349zM56 302v412h160v-412q0 -181 141 -181q130 0 130 181v412h160v-412q0 -146 -69.5 -232.5t-220.5 -86.5q-301 0 -301 319z" />
    <glyph glyph-name="umacron" unicode="&#x16b;" 
d="M462 682v-65h-341v65h341zM384 517h154v-517h-152v87q-41 -105 -152 -105q-186 0 -186 231v304h154v-258q0 -33 2.5 -56t10.5 -47t26 -36.5t46 -12.5q97 0 97 165v245z" />
    <glyph glyph-name="Ubreve" unicode="&#x16c;" horiz-adv-x="703" 
d="M193 904h72q6 -35 25.5 -51t61.5 -16t61.5 16t25.5 51h72q-9 -62 -52 -100t-107 -38t-107 38t-52 100zM56 302v412h160v-412q0 -181 141 -181q130 0 130 181v412h160v-412q0 -146 -69.5 -232.5t-220.5 -86.5q-301 0 -301 319z" />
    <glyph glyph-name="ubreve" unicode="&#x16d;" 
d="M302 571q-70 0 -115 40t-49 108h54q24 -83 110 -83q40 0 62 20.5t39 62.5h56q-8 -68 -51 -108t-106 -40zM384 517h154v-517h-152v87q-41 -105 -152 -105q-186 0 -186 231v304h154v-258q0 -33 2.5 -56t10.5 -47t26 -36.5t46 -12.5q97 0 97 165v245z" />
    <glyph glyph-name="Uring" unicode="&#x16e;" horiz-adv-x="703" 
d="M239 861q0 46 33.5 79t79.5 33t79.5 -33t33.5 -79t-33.5 -79t-79.5 -33t-79.5 33t-33.5 79zM285 860q0 -29 19 -48.5t48 -19.5t48 19.5t19 48.5t-19 48.5t-48 19.5t-48 -19.5t-19 -48.5zM56 302v412h160v-412q0 -181 141 -181q130 0 130 181v412h160v-412
q0 -146 -69.5 -232.5t-220.5 -86.5q-301 0 -301 319z" />
    <glyph glyph-name="uring" unicode="&#x16f;" 
d="M294 565q-46 0 -79.5 33t-33.5 79t33.5 79t79.5 33t79.5 -33t33.5 -79t-33.5 -79t-79.5 -33zM294 733q-25 0 -40.5 -16t-15.5 -41t15.5 -41t40.5 -16t40.5 16t15.5 41t-15.5 41t-40.5 16zM384 517h154v-517h-152v87q-41 -105 -152 -105q-186 0 -186 231v304h154v-258
q0 -33 2.5 -56t10.5 -47t26 -36.5t46 -12.5q97 0 97 165v245z" />
    <glyph glyph-name="Uhungarumlaut" unicode="&#x170;" horiz-adv-x="703" 
d="M236 779l81 143h105l-120 -143h-66zM392 779l81 143h105l-120 -143h-66zM56 302v412h160v-412q0 -181 141 -181q130 0 130 181v412h160v-412q0 -146 -69.5 -232.5t-220.5 -86.5q-301 0 -301 319z" />
    <glyph glyph-name="uhungarumlaut" unicode="&#x171;" 
d="M360 732l-120 -143h-66l81 143h105zM396 589h-66l81 143h105zM384 517h154v-517h-152v87q-41 -105 -152 -105q-186 0 -186 231v304h154v-258q0 -33 2.5 -56t10.5 -47t26 -36.5t46 -12.5q97 0 97 165v245z" />
    <glyph glyph-name="Uogonek" unicode="&#x172;" horiz-adv-x="703" 
d="M56 302v412h160v-412q0 -181 141 -181q130 0 130 181v412h160v-412q0 -137 -60.5 -221.5t-191.5 -95.5q-38 -38 -51.5 -58.5t-13.5 -44.5q0 -17 9.5 -29.5t28.5 -12.5q38 0 62 30l32 -18q-36 -62 -108 -62q-92 0 -92 82q0 27 27.5 60.5t56.5 50.5q-290 6 -290 319z" />
    <glyph glyph-name="uogonek" unicode="&#x173;" 
d="M461 -4q-79 -67 -79 -114q0 -17 9.5 -29.5t28.5 -12.5q38 0 62 30l32 -18q-36 -62 -108 -62q-92 0 -92 82q0 11 6 27t30.5 43.5t64.5 51.5l11 6h-40v87q-41 -105 -152 -105q-186 0 -186 231v304h154v-258q0 -33 2.5 -56t10.5 -47t26 -36.5t46 -12.5q97 0 97 165v245h154
v-517h-72z" />
    <glyph glyph-name="Wcircumflex" unicode="&#x174;" horiz-adv-x="947" 
d="M300 760l92 117h172l83 -117h-135l-36 56l-41 -56h-135zM0 714h170l71 -453l14 -92h3l19 92l96 453h201l89 -453l18 -93h4l16 93l76 453h170l-100 -453l-57 -261h-214l-102 555h-3l-59 -294l-52 -261h-214l-53 261z" />
    <glyph glyph-name="wcircumflex" unicode="&#x175;" horiz-adv-x="843" 
d="M247 579l111 135h121l112 -135h-120l-52 69l-53 -69h-119zM161 0l-149 517h157l46 -191q10 -39 38 -197h2q8 34 20 99t23 110l40 179h167l42 -183q8 -34 22 -107t20 -100h2q4 17 19 92t24 115l40 183h157l-151 -517h-181l-38 157q-31 122 -39 185h-4q-23 -121 -38 -183
l-38 -159h-181z" />
    <glyph glyph-name="Ycircumflex" unicode="&#x176;" horiz-adv-x="661" 
d="M157 760l92 117h172l83 -117h-135l-36 56l-41 -56h-135zM16 714h181l137 -294h1l136 294h174l-236 -446v-268h-160v268z" />
    <glyph glyph-name="ycircumflex" unicode="&#x177;" horiz-adv-x="557" 
d="M114 579l111 135h121l112 -135h-120l-52 69l-53 -69h-119zM12 517h162q20 -69 56.5 -183t52.5 -167h2q10 45 25.5 98.5t38.5 130.5t36 121h160q-132 -376 -219 -621q-36 -96 -134 -96h-116v115h55q49 0 60 41l10 36q-35 98 -97 268.5t-92 256.5z" />
    <glyph glyph-name="Ydieresis" unicode="&#x178;" horiz-adv-x="661" 
d="M184 764v112h114v-112h-114zM368 764v112h114v-112h-114zM16 714h181l137 -294h1l136 294h174l-236 -446v-268h-160v268z" />
    <glyph glyph-name="Zacute" unicode="&#x179;" horiz-adv-x="628" 
d="M243 760l106 117h164l-130 -117h-140zM50 0v127l328 451h-316v136h524v-97l-341 -481h351v-136h-546z" />
    <glyph glyph-name="zacute" unicode="&#x17a;" horiz-adv-x="509" 
d="M276 714h162l-151 -143h-114zM32 113l256 291q-14 -1 -122 -1h-125v114h429v-113l-257 -291q15 0 40.5 1t47 1.5t44.5 0.5h140v-116h-453v113z" />
    <glyph glyph-name="Zdotaccent" unicode="&#x17b;" horiz-adv-x="628" 
d="M278 794v104h90v-104h-90zM50 0v127l328 451h-316v136h524v-97l-341 -481h351v-136h-546z" />
    <glyph glyph-name="zdotaccent" unicode="&#x17c;" horiz-adv-x="509" 
d="M330 593h-114v121h114v-121zM32 113l256 291q-14 -1 -122 -1h-125v114h429v-113l-257 -291q15 0 40.5 1t47 1.5t44.5 0.5h140v-116h-453v113z" />
    <glyph glyph-name="Zcaron" unicode="&#x17d;" horiz-adv-x="628" 
d="M160 877h135l41 -56l36 56h135l-83 -117h-172zM50 0v127l328 451h-316v136h524v-97l-341 -481h351v-136h-546z" />
    <glyph glyph-name="zcaron" unicode="&#x17e;" horiz-adv-x="509" 
d="M330 579h-121l-111 135h119l53 -69l52 69h120zM345 116h140v-116h-453v113l256 291q-14 -1 -122 -1h-125v114h429v-113l-257 -291q15 0 40.5 1t47 1.5t44.5 0.5z" />
    <glyph glyph-name="uni0218" unicode="&#x218;" horiz-adv-x="640" 
d="M30 241h166q4 -56 42 -90.5t94 -34.5q116 0 116 82q0 28 -20.5 47t-42.5 27t-75 22q-12 3 -18 5q-50 14 -87 30t-72 42.5t-53.5 67t-18.5 93.5q0 65 40.5 111.5t99.5 67t128 20.5q115 0 188.5 -58t80.5 -179h-160q-7 104 -114 104q-46 0 -75 -18.5t-29 -55.5
q0 -36 34.5 -57.5t109.5 -42.5q45 -12 74 -22t64 -28.5t55.5 -41t34.5 -57.5t14 -79q0 -70 -41 -119.5t-101.5 -71.5t-131.5 -22q-123 0 -205.5 66t-96.5 192zM278 -138v88h111v-77q0 -41 -26.5 -62t-72.5 -21v35q19 5 28.5 12.5t10.5 11.5t1 13h-52z" />
    <glyph glyph-name="uni0219" unicode="&#x219;" horiz-adv-x="498" 
d="M323 364q-14 63 -78 63q-29 0 -46.5 -15t-17.5 -35q0 -26 27 -40t113 -34q83 -19 119 -56t36 -96q0 -73 -57.5 -121t-165.5 -48q-207 0 -231 180h152q11 -70 79 -70q34 0 51.5 14t17.5 37q0 30 -22 43t-101 32q-85 21 -124 55.5t-39 95.5q0 70 57.5 118t151.5 48
q95 0 152 -44.5t68 -126.5h-142zM201 -50h111v-77q0 -41 -26.5 -62t-72.5 -21v35q19 5 28.5 12.5t10.5 11.5t1 13h-52v88z" />
    <glyph glyph-name="uni021A" unicode="&#x21a;" horiz-adv-x="590" 
d="M14 578v136h562v-136h-201v-578h-160v578h-201zM240 -138v88h111v-77q0 -41 -26.5 -62t-72.5 -21v35q19 5 28.5 12.5t10.5 11.5t1 13h-52z" />
    <glyph glyph-name="uni021B" unicode="&#x21b;" horiz-adv-x="369" 
d="M349 403h-104v-176q0 -57 13.5 -85t51.5 -28h30v-114h-76q-101 0 -137 50.5t-36 150.5v202h-85v114h85v100l149 80h5v-180h104v-114zM175 -138v88h111v-77q0 -41 -26.5 -62t-72.5 -21v35q19 5 28.5 12.5t10.5 11.5t1 13h-52z" />
    <glyph glyph-name="circumflex" unicode="&#x2c6;" horiz-adv-x="356" 
d="M8 579l111 135h121l112 -135h-120l-52 69l-53 -69h-119z" />
    <glyph glyph-name="caron" unicode="&#x2c7;" horiz-adv-x="356" 
d="M232 714h120l-112 -135h-121l-111 135h119l53 -69z" />
    <glyph glyph-name="uni02C9" unicode="&#x2c9;" horiz-adv-x="397" 
d="M28 682h341v-55h-341v55z" />
    <glyph glyph-name="breve" unicode="&#x2d8;" horiz-adv-x="368" 
d="M78 719q24 -83 110 -83q40 0 62 20.5t39 62.5h56q-8 -68 -51 -108t-106 -40q-70 0 -115 40t-49 108h54z" />
    <glyph glyph-name="dotaccent" unicode="&#x2d9;" horiz-adv-x="234" 
d="M174 593h-114v121h114v-121z" />
    <glyph glyph-name="ring" unicode="&#x2da;" horiz-adv-x="282" 
d="M141 789q46 0 79.5 -33t33.5 -79t-33.5 -79t-79.5 -33t-79.5 33t-33.5 79t33.5 79t79.5 33zM141 619q25 0 40.5 16t15.5 41t-15.5 41t-40.5 16t-40.5 -16t-15.5 -41t15.5 -41t40.5 -16z" />
    <glyph glyph-name="ogonek" unicode="&#x2db;" horiz-adv-x="256" 
d="M180 0q-84 -70 -84 -118q0 -17 9.5 -29.5t28.5 -12.5q38 0 62 30l32 -18q-36 -62 -108 -62q-92 0 -92 82q0 8 4 19.5t14.5 29.5t35 39t58.5 40h40z" />
    <glyph glyph-name="tilde" unicode="&#x2dc;" horiz-adv-x="608" 
d="M400 721h62q-6 -52 -28 -82q-30 -41 -72 -41q-38 0 -78 21q-5 3 -16 9t-17 9t-15 6t-17 3q-29 0 -42 -48h-58q7 55 35 87.5t74 32.5q27 0 70 -20t66 -20q29 0 36 43z" />
    <glyph glyph-name="hungarumlaut" unicode="&#x2dd;" horiz-adv-x="398" 
d="M109 732h105l-120 -143h-66zM265 732h105l-120 -143h-66z" />
    <glyph glyph-name="uni0326" unicode="&#x326;" horiz-adv-x="0" 
d="M-139 -50h111v-77q0 -41 -26.5 -62t-72.5 -21v35q19 5 28.5 12.5t10.5 11.5t1 13h-52v88z" />
    <glyph glyph-name="endash" unicode="&#x2013;" horiz-adv-x="596" 
d="M38 346h520v-130h-520v130z" />
    <glyph glyph-name="emdash" unicode="&#x2014;" horiz-adv-x="880" 
d="M30 348h820v-130h-820v130z" />
    <glyph glyph-name="quoteleft" unicode="&#x2018;" horiz-adv-x="324" 
d="M230 480h-150l80 234h120z" />
    <glyph glyph-name="quoteright" unicode="&#x2019;" horiz-adv-x="324" 
d="M130 714h150l-80 -234h-120z" />
    <glyph glyph-name="quotesinglbase" unicode="&#x201a;" horiz-adv-x="324" 
d="M130 160h150l-80 -234h-120z" />
    <glyph glyph-name="quotedblleft" unicode="&#x201c;" horiz-adv-x="539" 
d="M230 480h-150l80 234h120zM445 480h-150l80 234h120z" />
    <glyph glyph-name="quotedblright" unicode="&#x201d;" horiz-adv-x="539" 
d="M130 714h150l-80 -234h-120zM345 714h150l-80 -234h-120z" />
    <glyph glyph-name="quotedblbase" unicode="&#x201e;" horiz-adv-x="539" 
d="M130 160h150l-80 -234h-120zM345 160h150l-80 -234h-120z" />
    <glyph glyph-name="dagger" unicode="&#x2020;" horiz-adv-x="564" 
d="M518 517v-75h-198v-597h-80v597h-194v75h194v197h80v-197h198z" />
    <glyph glyph-name="daggerdbl" unicode="&#x2021;" horiz-adv-x="564" 
d="M518 442h-198v-325h198v-75h-198v-197h-80v197h-194v75h194v325h-194v75h194v197h80v-197h198v-75z" />
    <glyph glyph-name="bullet" unicode="&#x2022;" horiz-adv-x="497" 
d="M253 455q77 0 130.5 -53t53.5 -130t-53.5 -131.5t-130.5 -54.5t-131 54.5t-54 131.5t54 130t131 53z" />
    <glyph glyph-name="ellipsis" unicode="&#x2026;" horiz-adv-x="826" 
d="M58 160h150v-160h-150v160zM338 160h150v-160h-150v160zM618 160h150v-160h-150v160z" />
    <glyph glyph-name="perthousand" unicode="&#x2030;" horiz-adv-x="1381" 
d="M690 721l-275 -727h-128l275 727h128zM219 719q88 0 136.5 -59.5t48.5 -147.5q0 -89 -48 -149.5t-137 -60.5q-88 0 -136.5 61t-48.5 149t48.5 147.5t136.5 59.5zM219 398q32 0 49.5 32.5t17.5 82.5q0 49 -17.5 80t-49.5 31q-33 0 -52 -31.5t-19 -79.5q0 -49 19 -82
t52 -33zM759 402q88 0 136.5 -59.5t48.5 -147.5q0 -89 -48 -149.5t-137 -60.5q-88 0 -136.5 61t-48.5 149t48.5 147.5t136.5 59.5zM1162 402q88 0 136.5 -59.5t48.5 -147.5q0 -89 -48 -149.5t-137 -60.5q-88 0 -136.5 61t-48.5 149t48.5 147.5t136.5 59.5zM759 81
q32 0 49.5 32.5t17.5 82.5q0 49 -17.5 80t-49.5 31t-49.5 -31t-17.5 -80q0 -50 17.5 -82.5t49.5 -32.5zM1162 81q32 0 49.5 32.5t17.5 82.5q0 49 -17.5 80t-49.5 31t-49.5 -31t-17.5 -80q0 -50 17.5 -82.5t49.5 -32.5z" />
    <glyph glyph-name="guilsinglleft" unicode="&#x2039;" horiz-adv-x="326" 
d="M52 275l110 204h120l-80 -204l80 -204h-120z" />
    <glyph glyph-name="guilsinglright" unicode="&#x203a;" horiz-adv-x="326" 
d="M274 275l-110 -204h-120l80 204l-80 204h120z" />
    <glyph glyph-name="fraction" unicode="&#x2044;" horiz-adv-x="283" 
d="M343 721l-275 -727h-128l275 727h128z" />
    <glyph glyph-name="Euro" unicode="&#x20ac;" horiz-adv-x="748" 
d="M344 213q54 -95 184 -95q79 0 142 28v-140q-64 -23 -142 -23q-130 0 -221 63t-130 167h-145l50 112h70q-1 11 -1 32v14h-119l50 112h88q36 111 129 179.5t229 68.5q118 0 194 -55l-67 -115q-53 35 -127 35q-142 0 -194 -113h303l-50 -112h-277v-14q0 -22 1 -32h259
l-50 -112h-176z" />
    <glyph glyph-name="trademark" unicode="&#x2122;" horiz-adv-x="481" 
d="M200 670h-62v-155h-52v155h-62v44h176v-44zM445 714v-199h-49v140h-1l-37 -140h-48l-37 141h-1v-141h-49v199h71l42 -145l38 145h71z" />
    <glyph glyph-name="arrowleft" unicode="&#x2190;" horiz-adv-x="876" 
d="M34 354l354 354l99 -99l-182 -182h533v-148l-532 1l181 -181l-99 -99z" />
    <glyph glyph-name="arrowup" unicode="&#x2191;" horiz-adv-x="776" 
d="M34 395l354 354l354 -354l-99 -99l-182 182v-478h-148l1 477l-181 -181z" />
    <glyph glyph-name="arrowright" unicode="&#x2192;" horiz-adv-x="888" 
d="M50 279v148h533l-182 182l99 99l354 -354l-354 -354l-99 99l181 181z" />
    <glyph glyph-name="arrowdown" unicode="&#x2193;" horiz-adv-x="776" 
d="M34 319l99 99l181 -181l-1 477h148v-478l182 182l99 -99l-354 -354z" />
    <glyph glyph-name="uni2196" unicode="&#x2196;" horiz-adv-x="685" 
d="M50 638h500v-140h-257l358 -357l-106 -104l-355 357v-256h-140v500z" />
    <glyph glyph-name="uni2197" unicode="&#x2197;" horiz-adv-x="685" 
d="M635 628v-500h-140v256l-355 -357l-106 104l358 357h-257v140h500z" />
    <glyph glyph-name="uni2198" unicode="&#x2198;" horiz-adv-x="685" 
d="M635 78h-500v140h257l-358 357l106 104l355 -357v256h140v-500z" />
    <glyph glyph-name="uni2199" unicode="&#x2199;" horiz-adv-x="685" 
d="M50 78v500h140v-256l355 357l106 -104l-358 -357h257v-140h-500z" />
    <glyph glyph-name="minus" unicode="&#x2212;" horiz-adv-x="656" 
d="M62 341h532v-128h-532v128z" />
    <glyph glyph-name="uni2219" unicode="&#x2219;" horiz-adv-x="286" 
d="M143 375q26 0 45 -19t19 -45q0 -24 -19.5 -44t-43.5 -20q-26 0 -45.5 19t-19.5 45t19 45t45 19z" />
    <glyph glyph-name="uniE0D6" unicode="&#xe0d6;" horiz-adv-x="274" 
d="M220 517v-523q0 -98 -36.5 -144.5t-137.5 -46.5h-64v115h21q41 0 54 17t13 69v513h150z" />
    <glyph glyph-name="grave.cap" horiz-adv-x="251" 
d="M147 877l106 -117h-140l-130 117h164z" />
    <glyph glyph-name="acute.cap" horiz-adv-x="251" 
d="M117 877h164l-130 -117h-140z" />
    <glyph glyph-name="circumflex.cap" horiz-adv-x="356" 
d="M9 760l92 117h172l83 -117h-135l-36 56l-41 -56h-135z" />
    <glyph glyph-name="caron.cap" horiz-adv-x="356" 
d="M221 877h135l-83 -117h-172l-92 117h135l41 -56z" />
    <glyph glyph-name="tilde.cap" horiz-adv-x="399" 
d="M373 894q-4 -60 -31 -97.5t-69 -37.5q-33 0 -77.5 24t-62.5 24q-33 0 -45 -44h-58q5 61 33.5 96.5t75.5 35.5q27 0 68.5 -20t64.5 -20q32 0 39 39h62z" />
    <glyph glyph-name="dieresis.cap" horiz-adv-x="334" 
d="M18 876h114v-112h-114v112zM202 876h114v-112h-114v112z" />
    <glyph glyph-name="macron.cap" horiz-adv-x="397" 
d="M24 856h349v-61h-349v61z" />
    <glyph glyph-name="breve.cap" horiz-adv-x="368" 
d="M346 904q-9 -62 -52 -100t-107 -38t-107 38t-52 100h72q6 -35 25.5 -51t61.5 -16t61.5 16t25.5 51h72z" />
    <glyph glyph-name="ring.cap" horiz-adv-x="282" 
d="M141 973q46 0 79.5 -33t33.5 -79t-33.5 -79t-79.5 -33t-79.5 33t-33.5 79t33.5 79t79.5 33zM141 792q29 0 48 19.5t19 48.5t-19 48.5t-48 19.5t-48 -19.5t-19 -48.5t19 -48.5t48 -19.5z" />
    <glyph glyph-name="hungarumlaut.cap" horiz-adv-x="398" 
d="M109 922h105l-120 -143h-66zM265 922h105l-120 -143h-66z" />
    <glyph glyph-name="dotaccent.cap" horiz-adv-x="146" 
d="M8 895h130v-110h-130v110z" />
    <glyph glyph-name="uni0326.alt" horiz-adv-x="0" 
d="M-28 626h-111v77q0 41 26.5 62t72.5 21v-35q-19 -5 -28.5 -12.5t-10.5 -11.5t-1 -13h52v-88z" />
    <glyph glyph-name="bullet2" horiz-adv-x="423" 
d="M216 428q62 0 104.5 -42.5t42.5 -103.5q0 -62 -43 -105.5t-104 -43.5q-62 0 -105 43.5t-43 105.5q0 61 43 103.5t105 42.5z" />
    <glyph glyph-name="bullet3" horiz-adv-x="645" 
d="M327 539q108 0 183 -74t75 -182q0 -109 -75 -185t-183 -76t-183.5 76t-75.5 185q0 108 75.5 182t183.5 74z" />
    <glyph glyph-name="bullet4" horiz-adv-x="871" 
d="M440 714q152 0 256.5 -103.5t104.5 -254.5q0 -152 -105 -258.5t-256 -106.5t-256.5 106.5t-105.5 258.5q0 151 105.5 254.5t256.5 103.5z" />
    <glyph glyph-name="zero.subs" horiz-adv-x="464" 
d="M232 394q57 0 97.5 -21t62.5 -58t32 -79.5t10 -94.5t-10 -96t-32 -82t-63 -59.5t-97 -21.5t-97 22t-63 60t-32 81.5t-10 95.5t10 94.5t32 79.5t63 58t97 21zM232 -18q82 0 82 159q0 153 -82 153t-82 -153q0 -159 82 -159z" />
    <glyph glyph-name="one.subs" horiz-adv-x="316" 
d="M262 386v-493h-120v325h-128v87q94 0 134 81h114z" />
    <glyph glyph-name="two.subs" horiz-adv-x="431" 
d="M404 -12l3 -94h-377q0 80 26.5 119t110.5 95q9 6 25 16.5t22 14.5t17.5 12t15 11.5t11 10t9.5 10.5t5.5 10.5t4.5 12.5t2 13.5t1 16.5q0 25 -15.5 42.5t-42.5 17.5t-46.5 -18.5t-18.5 -57.5h-120q0 74 56 124.5t127 50.5q87 0 134 -42.5t47 -106.5q0 -57 -25 -98.5
t-84 -85.5q-94 -70 -99 -74h211z" />
    <glyph glyph-name="three.subs" horiz-adv-x="443" 
d="M42 239q7 71 53.5 113t124.5 42q82 0 130.5 -37t48.5 -106q0 -40 -27 -68t-59 -35q48 -6 74 -43.5t26 -87.5q0 -48 -46.5 -92t-130.5 -44q-89 0 -143 38t-62 109l-1 9h117l2 -10q4 -22 27 -34.5t52 -12.5q69 0 69 61q0 23 -14.5 41.5t-53.5 18.5q-42 0 -56 -2v91
q36 -2 47 -2q59 -3 59 56q0 24 -16.5 38t-41.5 14q-52 0 -58 -46q0 -2 -0.5 -5.5t-0.5 -5.5h-120z" />
    <glyph glyph-name="four.subs" horiz-adv-x="433" 
d="M413 1h-55v-108h-121v108h-221v128l206 257h136v-280h55v-105zM237 106v139h-1l-107 -139h108z" />
    <glyph glyph-name="five.subs" horiz-adv-x="428" 
d="M236 226q77 0 125.5 -47t48.5 -124q0 -76 -54.5 -126t-131.5 -50q-27 0 -50.5 4.5t-40 10t-31 17t-23 19t-18 23.5t-12.5 22.5t-10 24t-9 20.5l120 3q18 -42 73 -42q30 0 48.5 23.5t18.5 52.5t-19.5 50t-47.5 21q-30 0 -45 -8.5t-27 -27.5l-115 8l41 286l296 -2v-99h-193
l-11 -74l7 -1q29 16 60 16z" />
    <glyph glyph-name="six.subs" horiz-adv-x="450" 
d="M251 227q78 0 126.5 -45t48.5 -114q0 -83 -51.5 -136t-143.5 -53q-94 0 -147 69q-54 72 -54 176q0 117 51.5 193.5t156.5 76.5q81 0 126 -36.5t53 -95.5l-120 -4q-17 37 -62 37q-40 0 -57.5 -27.5t-23.5 -76.5q48 36 97 36zM232 -20q32 0 53 20t21 54t-21 54.5t-53 20.5
q-34 0 -54 -23.5t-20 -51.5q0 -34 20.5 -54t53.5 -20z" />
    <glyph glyph-name="seven.subs" horiz-adv-x="383" 
d="M379 386v-75q-75 -73 -125 -188.5t-57 -229.5h-120q21 242 149 388h-206v105h359z" />
    <glyph glyph-name="eight.subs" horiz-adv-x="419" 
d="M298 151q41 -10 69 -42.5t28 -80.5q0 -69 -46.5 -109.5t-137.5 -40.5q-93 0 -140.5 40.5t-46.5 109.5q1 48 29.5 80.5t68.5 42.5q-36 10 -57.5 40.5t-21.5 72.5q0 54 42.5 92t124.5 38t124.5 -38t42.5 -92q0 -42 -21.5 -72.5t-57.5 -40.5zM210 299q-27 0 -39.5 -14.5
t-12.5 -36.5q0 -51 52 -51q53 0 53 51q0 22 -13 36.5t-40 14.5zM210 -27q34 0 49.5 18.5t15.5 45.5t-15.5 46t-49.5 19t-50 -19t-16 -46q0 -25 16 -44.5t50 -19.5z" />
    <glyph glyph-name="nine.subs" horiz-adv-x="446" 
d="M362 325q54 -74 54 -175q0 -73 -19.5 -131.5t-68.5 -99t-122 -40.5q-158 0 -176 133l120 3q0 -1 3 -6.5t4.5 -7.5t5.5 -7t7.5 -7t9 -5t13 -4t16.5 -1q68 0 83 109q-44 -40 -99 -40q-77 0 -125 45.5t-48 114.5q0 83 51.5 135.5t143.5 52.5q96 0 147 -69zM214 144
q34 0 53 22.5t19 53.5q0 33 -20 53t-52 20q-33 0 -53.5 -19.5t-20.5 -53.5q0 -35 21 -55.5t53 -20.5z" />
    <glyph glyph-name="zero.dnom" horiz-adv-x="464" 
d="M232 500q57 0 97.5 -21t62.5 -58t32 -79.5t10 -94.5t-10 -96t-32 -82t-63 -59.5t-97 -21.5t-97 22t-63 60t-32 81.5t-10 95.5t10 94.5t32 79.5t63 58t97 21zM232 88q82 0 82 159q0 153 -82 153t-82 -153q0 -159 82 -159z" />
    <glyph glyph-name="one.dnom" horiz-adv-x="316" 
d="M262 492v-493h-120v325h-128v87q94 0 134 81h114z" />
    <glyph glyph-name="two.dnom" horiz-adv-x="431" 
d="M404 94l3 -94h-377q0 80 26.5 119t110.5 95q9 6 25 16.5t22 14.5t17.5 12t15 11.5t11 10t9.5 10.5t5.5 10.5t4.5 12.5t2 13.5t1 16.5q0 25 -15.5 42.5t-42.5 17.5t-46.5 -18.5t-18.5 -57.5h-120q0 74 56 124.5t127 50.5q87 0 134 -42.5t47 -106.5q0 -57 -25 -98.5
t-84 -85.5q-94 -70 -99 -74h211z" />
    <glyph glyph-name="three.dnom" horiz-adv-x="443" 
d="M42 345q7 71 53.5 113t124.5 42q82 0 130.5 -37t48.5 -106q0 -40 -27 -68t-59 -35q48 -6 74 -43.5t26 -87.5q0 -48 -46.5 -92t-130.5 -44q-89 0 -143 38t-62 109l-1 9h117l2 -10q4 -22 27 -34.5t52 -12.5q69 0 69 61q0 23 -14.5 41.5t-53.5 18.5q-42 0 -56 -2v91
q36 -2 47 -2q59 -3 59 56q0 24 -16.5 38t-41.5 14q-52 0 -58 -46q0 -2 -0.5 -5.5t-0.5 -5.5h-120z" />
    <glyph glyph-name="four.dnom" horiz-adv-x="433" 
d="M413 107h-55v-108h-121v108h-221v128l206 257h136v-280h55v-105zM237 212v139h-1l-107 -139h108z" />
    <glyph glyph-name="five.dnom" horiz-adv-x="428" 
d="M236 332q77 0 125.5 -47t48.5 -124q0 -76 -54.5 -126t-131.5 -50q-27 0 -50.5 4.5t-40 10t-31 17t-23 19t-18 23.5t-12.5 22.5t-10 24t-9 20.5l120 3q18 -42 73 -42q30 0 48.5 23.5t18.5 52.5t-19.5 50t-47.5 21q-30 0 -45 -8.5t-27 -27.5l-115 8l41 286l296 -2v-99h-193
l-11 -74l7 -1q29 16 60 16z" />
    <glyph glyph-name="six.dnom" horiz-adv-x="450" 
d="M251 333q78 0 126.5 -45t48.5 -114q0 -83 -51.5 -136t-143.5 -53q-94 0 -147 69q-54 72 -54 176q0 117 51.5 193.5t156.5 76.5q81 0 126 -36.5t53 -95.5l-120 -4q-17 37 -62 37q-40 0 -57.5 -27.5t-23.5 -76.5q48 36 97 36zM232 86q32 0 53 20t21 54t-21 54.5t-53 20.5
q-34 0 -54 -23.5t-20 -51.5q0 -34 20.5 -54t53.5 -20z" />
    <glyph glyph-name="seven.dnom" horiz-adv-x="383" 
d="M379 492v-75q-75 -73 -125 -188.5t-57 -229.5h-120q21 242 149 388h-206v105h359z" />
    <glyph glyph-name="eight.dnom" horiz-adv-x="419" 
d="M298 257q41 -10 69 -42.5t28 -80.5q0 -69 -46.5 -109.5t-137.5 -40.5q-93 0 -140.5 40.5t-46.5 109.5q1 48 29.5 80.5t68.5 42.5q-36 10 -57.5 40.5t-21.5 72.5q0 54 42.5 92t124.5 38t124.5 -38t42.5 -92q0 -42 -21.5 -72.5t-57.5 -40.5zM210 405q-27 0 -39.5 -14.5
t-12.5 -36.5q0 -51 52 -51q53 0 53 51q0 22 -13 36.5t-40 14.5zM210 79q34 0 49.5 18.5t15.5 45.5t-15.5 46t-49.5 19t-50 -19t-16 -46q0 -25 16 -44.5t50 -19.5z" />
    <glyph glyph-name="nine.dnom" horiz-adv-x="446" 
d="M362 431q54 -74 54 -175q0 -73 -19.5 -131.5t-68.5 -99t-122 -40.5q-158 0 -176 133l120 3q0 -1 3 -6.5t4.5 -7.5t5.5 -7t7.5 -7t9 -5t13 -4t16.5 -1q68 0 83 109q-44 -40 -99 -40q-77 0 -125 45.5t-48 114.5q0 83 51.5 135.5t143.5 52.5q96 0 147 -69zM214 250
q34 0 53 22.5t19 53.5q0 33 -20 53t-52 20q-33 0 -53.5 -19.5t-20.5 -53.5q0 -35 21 -55.5t53 -20.5z" />
    <glyph glyph-name="zero.numr" horiz-adv-x="464" 
d="M232 722q57 0 97.5 -21t62.5 -58t32 -79.5t10 -94.5t-10 -96t-32 -82t-63 -59.5t-97 -21.5t-97 22t-63 60t-32 81.5t-10 95.5t10 94.5t32 79.5t63 58t97 21zM232 310q82 0 82 159q0 153 -82 153t-82 -153q0 -159 82 -159z" />
    <glyph glyph-name="one.numr" horiz-adv-x="316" 
d="M262 714v-493h-120v325h-128v87q94 0 134 81h114z" />
    <glyph glyph-name="two.numr" horiz-adv-x="431" 
d="M404 315l3 -94h-377q0 80 26.5 119t110.5 95q9 6 25 16.5t22 14.5t17.5 12t15 11.5t11 10t9.5 10.5t5.5 10.5t4.5 12.5t2 13.5t1 16.5q0 25 -15.5 42.5t-42.5 17.5t-46.5 -18.5t-18.5 -57.5h-120q0 74 56 124.5t127 50.5q87 0 134 -42.5t47 -106.5q0 -57 -25 -98.5
t-84 -85.5q-94 -70 -99 -74h211z" />
    <glyph glyph-name="three.numr" horiz-adv-x="443" 
d="M42 567q7 71 53.5 113t124.5 42q82 0 130.5 -37t48.5 -106q0 -40 -27 -68t-59 -35q48 -6 74 -43.5t26 -87.5q0 -48 -46.5 -92t-130.5 -44q-89 0 -143 38t-62 109l-1 9h117l2 -10q4 -22 27 -34.5t52 -12.5q69 0 69 61q0 23 -14.5 41.5t-53.5 18.5q-42 0 -56 -2v91
q36 -2 47 -2q59 -3 59 56q0 24 -16.5 38t-41.5 14q-52 0 -58 -46q0 -2 -0.5 -5.5t-0.5 -5.5h-120z" />
    <glyph glyph-name="four.numr" horiz-adv-x="433" 
d="M413 329h-55v-108h-121v108h-221v128l206 257h136v-280h55v-105zM237 434v139h-1l-107 -139h108z" />
    <glyph glyph-name="five.numr" horiz-adv-x="428" 
d="M236 554q77 0 125.5 -47t48.5 -124q0 -76 -54.5 -126t-131.5 -50q-27 0 -50.5 4.5t-40 10t-31 17t-23 19t-18 23.5t-12.5 22.5t-10 24t-9 20.5l120 3q18 -42 73 -42q30 0 48.5 23.5t18.5 52.5t-19.5 50t-47.5 21q-30 0 -45 -8.5t-27 -27.5l-115 8l41 286l296 -2v-99h-193
l-11 -74l7 -1q29 16 60 16z" />
    <glyph glyph-name="six.numr" horiz-adv-x="450" 
d="M251 555q78 0 126.5 -45t48.5 -114q0 -83 -51.5 -136t-143.5 -53q-94 0 -147 69q-54 72 -54 176q0 117 51.5 193.5t156.5 76.5q81 0 126 -36.5t53 -95.5l-120 -4q-17 37 -62 37q-40 0 -57.5 -27.5t-23.5 -76.5q48 36 97 36zM232 308q32 0 53 20t21 54t-21 54.5t-53 20.5
q-34 0 -54 -23.5t-20 -51.5q0 -34 20.5 -54t53.5 -20z" />
    <glyph glyph-name="seven.numr" horiz-adv-x="383" 
d="M379 714v-75q-75 -73 -125 -188.5t-57 -229.5h-120q21 242 149 388h-206v105h359z" />
    <glyph glyph-name="eight.numr" horiz-adv-x="419" 
d="M298 479q41 -10 69 -42.5t28 -80.5q0 -69 -46.5 -109.5t-137.5 -40.5q-93 0 -140.5 40.5t-46.5 109.5q1 48 29.5 80.5t68.5 42.5q-36 10 -57.5 40.5t-21.5 72.5q0 54 42.5 92t124.5 38t124.5 -38t42.5 -92q0 -42 -21.5 -72.5t-57.5 -40.5zM210 627q-27 0 -39.5 -14.5
t-12.5 -36.5q0 -51 52 -51q53 0 53 51q0 22 -13 36.5t-40 14.5zM210 301q34 0 49.5 18.5t15.5 45.5t-15.5 46t-49.5 19t-50 -19t-16 -46q0 -25 16 -44.5t50 -19.5z" />
    <glyph glyph-name="nine.numr" horiz-adv-x="446" 
d="M362 653q54 -74 54 -175q0 -73 -19.5 -131.5t-68.5 -99t-122 -40.5q-158 0 -176 133l120 3q0 -1 3 -6.5t4.5 -7.5t5.5 -7t7.5 -7t9 -5t13 -4t16.5 -1q68 0 83 109q-44 -40 -99 -40q-77 0 -125 45.5t-48 114.5q0 83 51.5 135.5t143.5 52.5q96 0 147 -69zM214 472
q34 0 53 22.5t19 53.5q0 33 -20 53t-52 20q-33 0 -53.5 -19.5t-20.5 -53.5q0 -35 21 -55.5t53 -20.5z" />
    <glyph glyph-name="zero.sups" horiz-adv-x="464" 
d="M232 828q57 0 97.5 -21t62.5 -58t32 -79.5t10 -94.5t-10 -96t-32 -82t-63 -59.5t-97 -21.5t-97 22t-63 60t-32 81.5t-10 95.5t10 94.5t32 79.5t63 58t97 21zM232 416q82 0 82 159q0 153 -82 153t-82 -153q0 -159 82 -159z" />
    <glyph glyph-name="one.sups" horiz-adv-x="326" 
d="M272 820v-493h-120v325h-128v87q94 0 134 81h114z" />
    <glyph glyph-name="two.sups" horiz-adv-x="431" 
d="M404 421l3 -94h-377q0 80 26.5 119t110.5 95q9 6 25 16.5t22 14.5t17.5 12t15 11.5t11 10t9.5 10.5t5.5 10.5t4.5 12.5t2 13.5t1 16.5q0 25 -15.5 42.5t-42.5 17.5t-46.5 -18.5t-18.5 -57.5h-120q0 74 56 124.5t127 50.5q87 0 134 -42.5t47 -106.5q0 -57 -25 -98.5
t-84 -85.5q-94 -70 -99 -74h211z" />
    <glyph glyph-name="three.sups" horiz-adv-x="443" 
d="M42 673q7 71 53.5 113t124.5 42q82 0 130.5 -37t48.5 -106q0 -40 -27 -68t-59 -35q48 -6 74 -43.5t26 -87.5q0 -48 -46.5 -92t-130.5 -44q-89 0 -143 38t-62 109l-1 9h117l2 -10q4 -22 27 -34.5t52 -12.5q69 0 69 61q0 23 -14.5 41.5t-53.5 18.5q-42 0 -56 -2v91
q36 -2 47 -2q59 -3 59 56q0 24 -16.5 38t-41.5 14q-52 0 -58 -46q0 -2 -0.5 -5.5t-0.5 -5.5h-120z" />
    <glyph glyph-name="four.sups" horiz-adv-x="433" 
d="M413 435h-55v-108h-121v108h-221v128l206 257h136v-280h55v-105zM237 540v139h-1l-107 -139h108z" />
    <glyph glyph-name="five.sups" horiz-adv-x="428" 
d="M236 660q77 0 125.5 -47t48.5 -124q0 -76 -54.5 -126t-131.5 -50q-27 0 -50.5 4.5t-40 10t-31 17t-23 19t-18 23.5t-12.5 22.5t-10 24t-9 20.5l120 3q18 -42 73 -42q30 0 48.5 23.5t18.5 52.5t-19.5 50t-47.5 21q-30 0 -45 -8.5t-27 -27.5l-115 8l41 286l296 -2v-99h-193
l-11 -74l7 -1q29 16 60 16z" />
    <glyph glyph-name="six.sups" horiz-adv-x="450" 
d="M251 661q78 0 126.5 -45t48.5 -114q0 -83 -51.5 -136t-143.5 -53q-94 0 -147 69q-54 72 -54 176q0 117 51.5 193.5t156.5 76.5q81 0 126 -36.5t53 -95.5l-120 -4q-17 37 -62 37q-40 0 -57.5 -27.5t-23.5 -76.5q48 36 97 36zM232 414q32 0 53 20t21 54t-21 54.5t-53 20.5
q-34 0 -54 -23.5t-20 -51.5q0 -34 20.5 -54t53.5 -20z" />
    <glyph glyph-name="seven.sups" horiz-adv-x="377" 
d="M377 820v-75q-75 -73 -125 -188.5t-57 -229.5h-120q21 242 149 388h-206v105h359z" />
    <glyph glyph-name="eight.sups" horiz-adv-x="419" 
d="M298 585q41 -10 69 -42.5t28 -80.5q0 -69 -46.5 -109.5t-137.5 -40.5q-93 0 -140.5 40.5t-46.5 109.5q1 48 29.5 80.5t68.5 42.5q-36 10 -57.5 40.5t-21.5 72.5q0 54 42.5 92t124.5 38t124.5 -38t42.5 -92q0 -42 -21.5 -72.5t-57.5 -40.5zM210 733q-27 0 -39.5 -14.5
t-12.5 -36.5q0 -51 52 -51q53 0 53 51q0 22 -13 36.5t-40 14.5zM210 407q34 0 49.5 18.5t15.5 45.5t-15.5 46t-49.5 19t-50 -19t-16 -46q0 -25 16 -44.5t50 -19.5z" />
    <glyph glyph-name="nine.sups" horiz-adv-x="446" 
d="M362 759q54 -74 54 -175q0 -73 -19.5 -131.5t-68.5 -99t-122 -40.5q-158 0 -176 133l120 3q0 -1 3 -6.5t4.5 -7.5t5.5 -7t7.5 -7t9 -5t13 -4t16.5 -1q68 0 83 109q-44 -40 -99 -40q-77 0 -125 45.5t-48 114.5q0 83 51.5 135.5t143.5 52.5q96 0 147 -69zM214 578
q34 0 53 22.5t19 53.5q0 33 -20 53t-52 20q-33 0 -53.5 -19.5t-20.5 -53.5q0 -35 21 -55.5t53 -20.5z" />
    <glyph glyph-name="bullet.5" horiz-adv-x="621" 
d="M311 12q108 0 183 76t75 185q0 108 -75 182t-183 74t-183.5 -74t-75.5 -182q0 -109 75.5 -185t183.5 -76zM311 472q84 0 142.5 -58t58.5 -141q0 -85 -58.5 -144.5t-142.5 -59.5t-143 59.5t-59 144.5q0 83 59 141t143 58z" />
    <glyph glyph-name="bullet.6" horiz-adv-x="477" 
d="M239 84q77 0 131.5 55t54.5 133t-54 131.5t-132 53.5t-132.5 -53.5t-54.5 -131.5t54.5 -133t132.5 -55zM239 406q56 0 95.5 -39.5t39.5 -94.5q0 -57 -39.5 -97t-95.5 -40q-57 0 -96.5 40t-39.5 97q0 56 39.5 95t96.5 39z" />
    <glyph glyph-name="bullet.5.case" horiz-adv-x="621" 
d="M311 72q108 0 183 76t75 185q0 108 -75 182t-183 74t-183.5 -74t-75.5 -182q0 -109 75.5 -185t183.5 -76zM311 532q84 0 142.5 -58t58.5 -141q0 -85 -58.5 -144.5t-142.5 -59.5t-143 59.5t-59 144.5q0 83 59 141t143 58z" />
    <glyph glyph-name="bullet.6.case" horiz-adv-x="477" 
d="M239 144q77 0 131.5 55t54.5 133t-54 131.5t-132 53.5t-132.5 -53.5t-54.5 -131.5t54.5 -133t132.5 -55zM239 466q56 0 95.5 -39.5t39.5 -94.5q0 -57 -39.5 -97t-95.5 -40q-57 0 -96.5 40t-39.5 97q0 56 39.5 95t96.5 39z" />
    <glyph glyph-name="slash.case" horiz-adv-x="341" 
d="M282 731h73l-296 -748h-73z" />
    <glyph glyph-name="slash.zero" horiz-adv-x="584" 
d="M393 642l69 -33l-270 -565l-69 32z" />
    <glyph glyph-name="parenleft.case" horiz-adv-x="332" 
d="M178 -17q-64 99 -97 188.5t-33 188.5q0 95 34 192t96 179h136q-106 -168 -106 -371q0 -204 106 -377h-136z" />
    <glyph glyph-name="parenright.case" horiz-adv-x="332" 
d="M154 -17h-136q106 173 106 377q0 203 -106 371h136q62 -82 96 -179t34 -192q0 -99 -33 -188.5t-97 -188.5z" />
    <glyph glyph-name="braceleft.case" horiz-adv-x="329" 
d="M305 611h-16q-38 0 -38 -69v-76q0 -49 -24 -76t-46 -32v-2q22 -4 46 -29.5t24 -78.5v-77q0 -69 38 -69h16v-119h-107q-33 0 -60 28.5t-27 76.5v127q0 74 -67 74v135q67 0 67 75v126q0 48 27 77t60 29h107v-120z" />
    <glyph glyph-name="braceright.case" horiz-adv-x="329" 
d="M24 611v120h107q33 0 60 -29t27 -77v-126q0 -75 67 -75v-135q-67 0 -67 -74v-127q0 -48 -27 -76.5t-60 -28.5h-107v119h16q38 0 38 69v77q0 53 24 78.5t46 29.5v2q-22 5 -46 32t-24 76v76q0 69 -38 69h-16z" />
    <glyph glyph-name="bracketleft.case" horiz-adv-x="335" 
d="M301 103v-120h-237v748h237v-120h-97v-508h97z" />
    <glyph glyph-name="bracketright.case" horiz-adv-x="335" 
d="M34 103h97v508h-97v120h237v-748h-237v120z" />
    <glyph glyph-name="parenleft.ss05" horiz-adv-x="332" 
d="M36 270q0 118 42.5 238t119.5 223h130q-132 -208 -132 -461q0 -255 132 -468h-130q-79 123 -120.5 234t-41.5 234z" />
    <glyph glyph-name="parenright.ss05" horiz-adv-x="332" 
d="M296 270q0 -123 -41.5 -234t-120.5 -234h-130q132 213 132 468q0 253 -132 461h130q77 -103 119.5 -223t42.5 -238z" />
    <glyph glyph-name="parenleft.case.ss05" horiz-adv-x="332" 
d="M48 360q0 95 34 192t96 179h136q-106 -168 -106 -371q0 -204 106 -377h-136q-64 99 -97 188.5t-33 188.5z" />
    <glyph glyph-name="parenright.case.ss05" horiz-adv-x="332" 
d="M284 360q0 -99 -33 -188.5t-97 -188.5h-136q106 173 106 377q0 203 -106 371h136q62 -82 96 -179t34 -192z" />
    <glyph glyph-name="bracketleft.case.ss05" horiz-adv-x="289" 
d="M267 20v-22h-157v723h157v-22h-133v-679h133z" />
    <glyph glyph-name="bracketright.case.ss05" horiz-adv-x="289" 
d="M22 20h133v679h-133v22h157v-723h-157v22z" />
    <glyph glyph-name="hyphen.case" horiz-adv-x="472" 
d="M56 422h360v-130h-360v130z" />
    <glyph glyph-name="endash.case" horiz-adv-x="596" 
d="M38 418h520v-130h-520v130z" />
    <glyph glyph-name="emdash.case" horiz-adv-x="880" 
d="M30 422h820v-130h-820v130z" />
    <glyph glyph-name="guillemotleft.case" horiz-adv-x="576" 
d="M52 335l110 204h120l-80 -204l80 -204h-120zM302 334l110 204h120l-80 -204l80 -204h-120z" />
    <glyph glyph-name="guillemotright.case" horiz-adv-x="576" 
d="M524 335l-110 -204h-120l80 204l-80 204h120zM274 334l-110 -204h-120l80 204l-80 204h120z" />
    <glyph glyph-name="guilsinglleft.case" horiz-adv-x="326" 
d="M52 335l110 204h120l-80 -204l80 -204h-120z" />
    <glyph glyph-name="guilsinglright.case" horiz-adv-x="326" 
d="M274 335l-110 -204h-120l80 204l-80 204h120z" />
    <glyph glyph-name="plus.case" horiz-adv-x="632" 
d="M379 413h213v-128h-213v-213h-126v213h-213v128h213v213h126v-213z" />
    <glyph glyph-name="minus.case" horiz-adv-x="636" 
d="M62 410h512v-128h-512v128z" />
    <glyph glyph-name="multiply.case" horiz-adv-x="634" 
d="M62 178l165 164l-165 165l91 91l165 -165l164 165l90 -90l-165 -164l165 -165l-91 -91l-165 165l-164 -165z" />
    <glyph glyph-name="divide.case" horiz-adv-x="608" 
d="M212 561q0 37 27 64.5t65 27.5t65 -27.5t27 -64.5q0 -35 -27.5 -63.5t-63.5 -28.5q-38 0 -65.5 27.5t-27.5 64.5zM38 418h532v-128h-532v128zM212 141q0 37 27 64.5t65 27.5t65 -27.5t27 -64.5q0 -35 -27.5 -63.5t-63.5 -28.5q-38 0 -65.5 27.5t-27.5 64.5z" />
    <glyph glyph-name="equal.case" horiz-adv-x="668" 
d="M606 392h-544v118h544v-118zM62 317h544v-118h-544v118z" />
    <glyph glyph-name="plusminus.case" horiz-adv-x="656" 
d="M62 514h203v129h126v-129h203v-128h-203v-129h-126v129h-203v128zM62 212h532v-118h-532v118z" />
    <glyph glyph-name="plus.case.ss05" horiz-adv-x="556" 
d="M294 352h236v-28h-236v-239h-32v239h-236v28h236v239h32v-239z" />
    <glyph glyph-name="plus.ss05" horiz-adv-x="556" 
d="M294 267h236v-28h-236v-239h-32v239h-236v28h236v239h32v-239z" />
    <glyph glyph-name="copyright.sups" horiz-adv-x="277" 
d="M139 480q-53 0 -90 36.5t-37 90.5q0 52 37 88.5t90 36.5t89.5 -36.5t36.5 -88.5q0 -54 -36.5 -90.5t-89.5 -36.5zM139 513q38 0 63.5 27t26.5 67q1 39 -25.5 65.5t-64.5 26.5t-64.5 -26.5t-26.5 -65.5q0 -40 26.5 -67t64.5 -27zM202 585q-12 -46 -64 -46
q-28 0 -46.5 17.5t-18.5 49.5q0 30 19.5 48.5t46.5 18.5q51 0 63 -46h-33q-7 17 -30 17q-13 0 -23 -10.5t-10 -27.5t10 -28t23 -11q21 0 30 18h33z" />
    <glyph glyph-name="registered.sups" horiz-adv-x="277" 
d="M139 480q53 0 89.5 36.5t36.5 90.5q0 52 -36.5 88.5t-89.5 36.5t-90 -36.5t-37 -88.5q0 -54 37 -90.5t90 -36.5zM139 513q-38 0 -64.5 27t-26.5 67q0 39 26.5 65.5t64.5 26.5t64.5 -26.5t25.5 -65.5q-1 -40 -26.5 -67t-63.5 -27zM92 543v128h49q49 0 49 -37
q0 -29 -26 -35q4 -1 6.5 -3t4 -3.5t3 -4t2 -4t1.5 -5t2 -5.5l4.5 -13.5t5.5 -15.5v-2h-30q-3 4 -4.5 8.5t-3 10t-2.5 8.5q-6 17 -20 17h-10v-44h-31zM123 612h15q21 0 21 17q0 16 -20 16h-16v-33z" />
    <glyph glyph-name="cedilla.cap" horiz-adv-x="272" 
d="M172 -2l-99 -73l2 -2q37 27 88 27q35 0 60.5 -19.5t25.5 -54.5q0 -46 -39 -68.5t-88 -22.5q-52 0 -106 27l42 52q19 -14 54 -14q42 0 42 24q0 25 -42 25q-30 0 -55 -19l-31 42l83 77z" />
    </font>
</defs>
</svg>
